<svg width="24" height="25" viewBox="0 0 24 25" fill="none" xmlns="http://www.w3.org/2000/svg">
<path d="M20.9994 19.6864V16.9767C21.0104 16.5337 20.8579 16.1021 20.5709 15.764C19.7615 14.8106 16.9855 14.2008 15.8851 14.435C15.0273 14.6176 14.4272 15.4788 13.8405 16.0644C11.5746 14.7785 9.69858 12.9062 8.41019 10.6448C8.9969 10.0593 9.85987 9.46036 10.0428 8.60428C10.2771 7.50777 9.66813 4.74949 8.72131 3.93684C8.38828 3.651 7.96247 3.49577 7.52325 3.50009H4.80811C3.77358 3.50106 2.91287 4.42895 3.00706 5.46919C3 14.435 10 21.5 19.0264 21.4929C20.0722 21.5873 21.0036 20.7223 20.9994 19.6864Z" stroke="#2084A2" stroke-width="1.5" stroke-linecap="round" stroke-linejoin="round"/>
</svg>
