<svg width="19" height="19" viewBox="0 0 19 19" fill="none" xmlns="http://www.w3.org/2000/svg">
<path d="M8.6669 2.69531H3.35905C2.73339 2.69531 2.13336 2.94385 1.69095 3.38626C1.24854 3.82867 1 4.4287 1 5.05436V15.6701C1 16.2957 1.24854 16.8958 1.69095 17.3382C2.13336 17.7806 2.73339 18.0291 3.35905 18.0291H15.1543C15.7799 18.0291 16.38 17.7806 16.8224 17.3382C17.2648 16.8958 17.5133 16.2957 17.5133 15.6701V10.3622" stroke="#2084A2" stroke-width="1.5" stroke-linecap="round" stroke-linejoin="round"/>
<path d="M15.1549 3.87514L16.279 5.05466M17.514 1.47716C17.829 1.80202 18.0035 2.2378 17.9997 2.69029C17.996 3.14278 17.8143 3.57561 17.4939 3.89519L9.25732 12.1318L5.71875 13.3113L6.89827 9.77275L15.1396 1.46183C15.4295 1.17011 15.8171 0.996129 16.2277 0.973475C16.6384 0.95082 17.0428 1.0811 17.363 1.33916L17.514 1.47716Z" stroke="#2084A2" stroke-width="1.5" stroke-linecap="round" stroke-linejoin="round"/>
</svg>
