<svg width="170" height="171" viewBox="0 0 170 171" fill="none" xmlns="http://www.w3.org/2000/svg">
<path d="M9.89468 164.413C12.9095 167.681 25.3275 161.983 35.1291 157.414C42.4736 154.001 71.865 141.942 86.4744 135.686C90.4189 133.999 96.1564 131.795 100.287 126.363C103.953 121.528 113.674 100.996 94.0978 80.1971C74.2291 59.0799 53.7627 64.9104 46.1127 70.3291C41.6103 73.5166 37.9447 80.7018 36.2978 84.3541C29.3384 99.7869 19.4173 128.063 15.3798 139.179C12.4181 147.374 6.9064 161.173 9.89468 164.413Z" fill="#FFC107"/>
<path d="M34.3318 89.002C34.5178 91.3129 34.9826 95.0715 36.5764 102.31C37.6654 107.277 39.4451 112.483 40.8928 115.923C45.2357 126.269 51.3318 130.439 57.5076 133.786C67.9998 139.471 75.1318 140.533 75.1318 140.533L66.5787 144.026C66.5787 144.026 61.399 142.95 54.3334 139.471C47.5998 136.15 40.5873 130.532 35.4607 119.536C33.2428 114.768 31.9545 110.146 31.2107 106.48C30.2943 101.938 30.1482 99.3613 30.1482 99.3613L34.3318 89.002ZM23.8264 115.936C23.8264 115.936 24.8889 124.556 32.0076 135.433C40.3482 148.157 51.9959 150.242 51.9959 150.242L44.2529 153.429C44.2529 153.429 35.6068 150.786 27.3857 139.564C22.2592 132.564 20.8248 124.197 20.8248 124.197L23.8264 115.936ZM16.4553 136.363C16.4553 136.363 18.3943 143.8 22.6443 149.352C27.7045 155.979 34.1459 157.905 34.1459 157.905L28.2092 160.535C28.2092 160.535 23.7068 159.592 18.7795 153.35C15.0342 148.608 13.9717 143.163 13.9717 143.163L16.4553 136.363Z" fill="#FF8F00"/>
<path opacity="0.44" d="M13.2279 155.249C12.9622 154.652 12.9622 153.974 13.2411 153.39L47.0685 83.2383L52.6333 104.156L17.0396 155.568C16.0833 157.002 13.9318 156.816 13.2279 155.249Z" fill="#FFFDE7"/>
<path d="M55.3168 111.182C71.1215 129.67 89.1176 127.359 95.1074 122.684C101.111 117.996 105.852 101.885 90.1137 83.7034C73.6184 64.6581 54.9449 70.0901 50.6285 74.2073C46.3121 78.3245 40.8137 94.2221 55.3168 111.182Z" fill="url(#paint0_linear_1264_17056)"/>
<path d="M109.596 118.793C103.832 113.958 100.764 114.821 96.6473 116.535C91.3348 118.739 82.9809 120.373 71.6387 116.535L75.052 108.314C81.7855 110.585 86.6598 109.482 90.8699 106.999C96.2887 103.811 103.7 99.4418 115.228 109.124C120.036 113.161 124.963 115.844 128.575 114.622C131.205 113.746 132.6 109.828 133.304 106.707C133.37 106.428 133.476 105.631 133.556 104.927C134.193 100.053 135.256 89.534 143.092 84.1551C151.472 78.4043 160.278 78.4043 160.278 78.4043L161.871 94.2356C157.821 93.6379 155.005 94.4613 152.628 95.7762C143.676 100.757 151.472 119.882 137.54 126.31C124.139 132.539 113.182 121.794 109.596 118.793Z" fill="#03A9F4"/>
<path d="M60.2971 98.6047L54.5331 93.4383C65.1182 81.618 62.3291 72.932 60.2971 66.6102C59.8854 65.3352 59.5002 64.1266 59.2479 62.9711C58.3448 58.8805 58.1588 55.3211 58.4377 52.2133C54.3737 47.1531 52.5807 41.8539 52.4612 41.4953C49.9909 34.018 51.8502 26.7266 56.1135 19.8867C64.733 6.00781 80.3385 6.00781 80.3385 6.00781L85.5448 19.9398C81.587 19.7805 68.6112 19.9797 64.6268 26.2617C59.5932 34.1773 62.9002 39.0648 63.1393 39.6227C64.1088 38.3609 65.0916 37.3516 65.9682 36.568C72.3299 30.9234 77.8549 30.1133 81.3745 30.432C85.3323 30.7906 88.9182 32.7828 91.4815 36.05C94.2838 39.6359 95.4393 44.2977 94.5495 48.5344C93.6862 52.6648 90.937 56.1578 86.8065 58.3758C79.5948 62.2539 73.5916 61.7227 69.5674 60.3813C69.594 60.4742 69.6073 60.5805 69.6338 60.6734C69.7799 61.3375 70.0721 62.2672 70.4174 63.343C72.7682 70.6211 77.1377 82.1758 60.2971 98.6047ZM70.0588 48.7602C70.8291 49.318 71.6393 49.7828 72.476 50.1148C75.2651 51.2305 78.3065 50.8586 81.7596 48.9992C83.7916 47.9102 84.0307 46.7414 84.1104 46.3563C84.3495 45.2008 83.951 43.7266 83.0877 42.6242C82.3307 41.6547 81.4541 41.15 80.4049 41.0438C78.4127 40.8711 75.7166 42.1328 73.0205 44.5367C71.7323 45.6922 70.7495 47.1133 70.0588 48.7602Z" fill="#F44336"/>
<path d="M83.3668 100.77L75.1191 100.544C75.1191 100.544 79.0371 78.4176 91.7207 74.6988C94.098 74.0082 96.7012 73.3043 99.3176 72.9192C100.871 72.6801 103.329 72.3215 104.537 71.8699C104.816 69.7848 103.939 67.1285 102.957 64.1137C102.186 61.7762 101.389 59.3723 100.964 56.7426C100.141 51.616 101.509 47.0871 104.816 43.966C108.854 40.1809 115.375 38.9723 122.732 40.6457C126.929 41.602 130.024 43.6606 132.746 45.4668C136.638 48.0566 138.909 49.3715 143.664 46.1707C149.414 42.2926 141.897 27.1121 137.9 18.3465L152.814 12.1309C154.82 16.5137 164.502 39.0652 158.114 51.9348C155.962 56.2645 152.257 59.1332 147.396 60.209C136.824 62.5731 130.635 58.4559 126.119 55.4543C123.981 54.0332 122.108 52.9176 120.076 52.3332C105.958 48.309 125.668 69.0809 116.437 78.4176C110.899 84.009 97.3652 85.4832 96.4887 85.6957C87.7762 87.7942 83.3668 100.77 83.3668 100.77Z" fill="#F48FB1"/>
<path d="M58.4242 52.2129C58.1718 55.1348 58.0523 56.8746 58.8093 60.673C62.4617 63.3559 70.4171 63.3559 70.4171 63.3559C70.0718 62.2801 69.7664 61.3504 69.6335 60.6863C69.607 60.5934 69.5937 60.4871 69.5671 60.3941C61.4789 56.3566 58.4242 52.2129 58.4242 52.2129Z" fill="#C92B27"/>
<path d="M41.8754 65.2955L28.1426 58.5619L34.9824 48.6807L45.7535 55.8127L41.8754 65.2955Z" fill="#FFC107"/>
<path d="M21.6348 46.6488C14.6223 45.7059 7.47695 39.7559 6.69336 39.0785L13.5863 30.9902C15.6715 32.7566 20.0941 35.7184 23.0559 36.1168L21.6348 46.6488Z" fill="#FB8C00"/>
<path d="M34.0137 28.9449L23.9199 25.6379C25.0754 22.1051 25.3809 18.2934 24.7832 14.6145L35.2754 12.9277C36.1387 18.2668 35.7004 23.8051 34.0137 28.9449Z" fill="#03A9F4"/>
<path d="M97.0498 21.0484L107.429 18.7773L110.427 32.4783L100.047 34.7494L97.0498 21.0484Z" fill="#FB8C00"/>
<path d="M122.799 24.2959L115.494 16.5795C119.319 12.9537 120.196 8.2123 120.196 8.15918L130.688 9.87246C130.555 10.7092 129.214 18.2264 122.799 24.2959Z" fill="#FFC107"/>
<path d="M126.854 65.2161L136.134 62.3154L139.303 72.457L130.023 75.3576L126.854 65.2161Z" fill="#FB8C00"/>
<path d="M129.559 150.813L119 149.565C119.452 145.806 116.649 141.197 115.879 140.175L124.379 133.8C125.016 134.637 130.555 142.3 129.559 150.813Z" fill="#F44336"/>
<path d="M159.867 137.346C155.896 136.748 151.831 136.509 147.821 136.655L147.462 126.03C152.124 125.871 156.838 126.136 161.447 126.84L159.867 137.346Z" fill="#FB8C00"/>
<path d="M145.581 151.971L153.045 144.41L163.318 154.554L155.854 162.114L145.581 151.971Z" fill="#F48FB1"/>
<path d="M123.653 84.8105L131.329 93.5881L122.552 101.265L114.875 92.4871L123.653 84.8105Z" fill="#F44336"/>
<defs>
<linearGradient id="paint0_linear_1264_17056" x1="98.7917" y1="82.8255" x2="59.2574" y2="106.546" gradientUnits="userSpaceOnUse">
<stop offset="0.024" stop-color="#8F4700"/>
<stop offset="1" stop-color="#703E2D"/>
</linearGradient>
</defs>
</svg>
