<svg width="200" height="101" viewBox="0 0 200 101" fill="none" xmlns="http://www.w3.org/2000/svg">
<path fill-rule="evenodd" clip-rule="evenodd" d="M122.464 0.638428C125.16 0.673499 127.816 0.947494 130.435 1.46041C131.056 1.83798 131.539 2.29445 131.884 2.83039C127.566 8.03793 125.876 13.7003 126.812 19.8181C123.854 19.9035 120.955 19.6296 118.116 18.9961C117.711 18.5988 117.47 18.1423 117.392 17.6261C120.742 12.2229 122.434 6.56055 122.464 0.638428Z" fill="#F48323"/>
<path fill-rule="evenodd" clip-rule="evenodd" d="M89.1305 4.47591C92.0392 4.38495 94.9378 4.47646 97.8262 4.74991C97.5588 6.66623 97.9211 8.58419 98.9132 10.5038C99.6639 8.60173 100.268 6.68376 100.725 4.74991C102.657 4.3844 104.589 4.3844 106.522 4.74991C107.281 5.71218 107.281 6.71719 106.522 7.76385C107.488 10.6863 108.454 10.6863 109.42 7.76385C108.661 6.71719 108.661 5.71218 109.42 4.74991C111.594 4.3844 113.768 4.3844 115.942 4.74991C116.347 5.1472 116.589 5.60368 116.667 6.11988C114.003 9.41768 111.709 12.8881 109.783 16.5317C107.85 18.7236 105.918 18.7236 103.986 16.5317C103.644 15.5749 103.161 14.6614 102.536 13.7917C101.651 16.3037 99.5972 17.4907 96.3769 17.3537C94.382 13.88 92.0871 10.5005 89.4929 7.21586C89.1349 6.32045 89.0146 5.40695 89.1305 4.47591Z" fill="#F48323"/>
<path fill-rule="evenodd" clip-rule="evenodd" d="M136.232 3.37817C138.566 3.9289 140.981 4.38593 143.478 4.74815C144.667 6.26937 144.183 7.36535 142.029 8.03609C136.949 8.67066 135.017 7.1182 136.232 3.37817Z" fill="#F38323"/>
<path fill-rule="evenodd" clip-rule="evenodd" d="M75.3633 6.11828C84.1669 6.07828 87.6698 9.36621 85.8705 15.9821C81.5589 20.5715 76.7285 20.937 71.3778 17.0781C67.9242 12.2991 69.2524 8.64561 75.3633 6.11828Z" fill="#F48323"/>
<path fill-rule="evenodd" clip-rule="evenodd" d="M132.609 9.40748C135.222 9.24911 137.758 9.43159 140.217 9.95546C138.693 13.9717 137.606 18.0816 136.956 22.2852C134.135 22.5044 131.478 22.0479 128.985 20.9153C128.744 20.5497 128.502 20.1848 128.261 19.8193C129.732 17.8788 131.06 15.8694 132.246 13.7914C132.606 12.3414 132.727 10.8799 132.609 9.40748Z" fill="#F68422"/>
<path fill-rule="evenodd" clip-rule="evenodd" d="M151.449 8.30813C156.828 8.09551 159.847 9.92196 160.507 13.788C156.234 15.8172 154.422 14.9037 155.072 11.0481C154.347 11.0481 153.623 11.0481 152.898 11.0481C152.411 12.9156 153.136 14.3771 155.072 15.432C153.394 15.8342 152.066 16.5652 151.086 17.624C149.49 19.8548 148.524 22.2293 148.188 24.7478C147.936 25.6684 147.212 26.2164 146.014 26.3918C143.088 25.6317 140.552 24.4448 138.405 22.8299C141.687 20.1551 144.344 17.1412 146.376 13.788C145.836 13.1107 145.594 12.3797 145.652 11.5961C148.16 11.1045 150.092 10.0085 151.449 8.30813Z" fill="#F28223"/>
<path fill-rule="evenodd" clip-rule="evenodd" d="M61.5958 22.5566C61.5878 23.3879 61.1052 24.0274 60.1465 24.4746C57.7972 25.3727 55.3813 25.9207 52.9001 26.1185C52.7646 22.5221 50.953 19.5081 47.4653 17.0767C47.5291 15.3549 48.6161 13.985 50.7262 12.9668C51.9834 12.61 53.1914 12.701 54.3494 13.2408C55.882 10.9272 58.2972 9.92271 61.5958 10.2268C64.6784 13.4298 67.5769 16.7178 70.2914 20.0907C68.0436 22.3138 65.145 23.1358 61.5958 22.5566Z" fill="#F58322"/>
<path fill-rule="evenodd" clip-rule="evenodd" d="M36.9557 27.4897C36.4688 27.0694 35.8652 26.7039 35.1442 26.3937C34.7202 27.2146 35.0826 27.7626 36.2311 28.0377C38.3898 29.3046 40.3224 30.7661 42.0282 32.4216C40.0123 34.128 37.5971 35.4065 34.7818 36.2575C34.2985 36.0751 33.8159 35.892 33.3326 35.7095C30.855 30.5004 26.6278 26.2989 20.6514 23.1058C20.1683 22.5578 20.1683 22.0098 20.6514 21.4618C22.7644 19.6441 25.3006 18.6397 28.2601 18.4479C29.6702 20.3056 30.9985 22.2235 32.2456 24.2018C32.8202 21.413 31.7333 19.0381 28.9847 17.0779C31.413 15.2432 34.0702 13.5993 36.9557 12.146C37.9565 12.42 38.4391 12.968 38.405 13.79C35.4818 19.8743 38.1384 23.6193 46.376 25.0238C51.6173 24.7585 52.5833 26.0375 49.2746 28.8597C47.6811 29.7896 45.9905 30.6116 44.2021 31.3256C42.1739 29.6066 39.7586 28.3276 36.9557 27.4897Z" fill="#F58322"/>
<path fill-rule="evenodd" clip-rule="evenodd" d="M76.0867 9.95257C77.8338 9.75365 78.9207 10.3016 79.3475 11.5965C79.9403 13.0909 79.82 14.5524 78.9852 15.9805C76.612 14.3929 75.6461 12.384 76.0867 9.95257Z" fill="white"/>
<path fill-rule="evenodd" clip-rule="evenodd" d="M61.593 22.5574C58.343 20.8274 56.6524 18.4529 56.5205 15.4335C57.4785 15.3404 58.3241 15.5228 59.0567 15.9815C60.4393 18.0557 61.285 20.2476 61.593 22.5574Z" fill="white"/>
<path fill-rule="evenodd" clip-rule="evenodd" d="M160.87 18.7207C164.485 18.9941 167.142 20.3641 168.841 22.8306C166.512 23.9299 165.425 25.4823 165.581 27.4885C167.717 26.4254 169.528 25.1464 171.015 23.6526C172.541 24.1622 173.991 24.8012 175.363 25.5706C176.267 26.3893 176.267 27.2113 175.363 28.0365C168.885 29.937 162.846 32.4029 157.247 35.4344C152.692 37.0866 149.552 36.1731 147.827 32.6944C149.699 28.3324 152.115 28.1494 155.073 32.1465C155.76 32.4111 156.485 32.5021 157.247 32.4204C158.92 27.922 160.128 23.3556 160.87 18.7207Z" fill="#F48323"/>
<path fill-rule="evenodd" clip-rule="evenodd" d="M36.9579 27.4903C36.4745 27.4903 36.2332 27.6727 36.2332 28.0383C35.0847 27.7632 34.7224 27.2152 35.1463 26.3943C35.8673 26.7044 36.4709 27.07 36.9579 27.4903Z" fill="#84543C"/>
<path fill-rule="evenodd" clip-rule="evenodd" d="M158.696 48.3135C151.467 49.1338 144.22 49.8643 136.957 50.5054C128.688 50.2961 121.199 51.9401 114.493 55.4373C114.128 56.9947 112.92 57.7252 110.87 57.6293C110.359 59.2968 108.909 60.2103 106.522 60.3692C110.175 54.5907 115.731 50.1152 123.188 46.9435C133.384 42.8697 144.254 40.7687 155.797 40.6416C157.196 43.0867 158.162 45.6442 158.696 48.3135Z" fill="#DFCEBA"/>
<path fill-rule="evenodd" clip-rule="evenodd" d="M89.8555 52.6987C88.8185 52.9075 88.2149 53.4555 88.0439 54.3427C84.0743 53.2834 80.3301 51.9134 76.812 50.2328C67.225 48.0353 57.5634 47.3958 47.8265 48.3148C47.2627 47.9553 46.7801 47.4988 46.3772 46.9448C47.8439 45.3661 48.8098 43.6311 49.2757 41.7389C61.0953 41.7181 72.2062 43.8185 82.6091 48.0408C85.4801 49.2135 87.896 50.766 89.8555 52.6987Z" fill="#DDCFBF"/>
<path fill-rule="evenodd" clip-rule="evenodd" d="M89.8555 52.6976C95.0511 55.6019 98.6743 59.4378 100.725 64.2054C98.883 63.0343 97.4337 61.5728 96.3772 59.8214C93.983 59.7239 92.775 58.8109 92.754 57.0815C90.8214 56.716 88.8895 56.351 86.9569 55.9855C81.891 54.1662 76.5772 52.7962 71.0149 51.8756C62.8424 50.9106 54.6301 50.2711 46.3772 49.9576C46.6902 49.2946 47.1736 48.7466 47.8265 48.3137C57.5634 47.3947 67.225 48.0342 76.812 50.2316C80.3301 51.9123 84.0743 53.2823 88.0439 54.3415C88.2149 53.4543 88.8185 52.9064 89.8555 52.6976Z" fill="#DEC2AB"/>
<path fill-rule="evenodd" clip-rule="evenodd" d="M47.8274 51.0537C51.1767 50.8652 54.3165 51.2307 57.2477 52.1497C53.9513 52.0818 50.8115 51.7162 47.8274 51.0537Z" fill="#BC604F"/>
<path fill-rule="evenodd" clip-rule="evenodd" d="M159.42 49.9592C151.16 51.6355 142.705 52.914 134.057 53.7952C136.273 52.9008 138.689 52.2613 141.304 51.8772C147.325 51.1095 153.364 50.47 159.42 49.9592Z" fill="#5B788C"/>
<path fill-rule="evenodd" clip-rule="evenodd" d="M57.2469 52.1489C64.4222 52.7413 71.4266 53.9282 78.2614 55.7109C82.378 56.7164 86.0012 58.2689 89.1309 60.3688C85.0121 59.0552 80.9056 57.6853 76.8121 56.2588C72.2722 55.1722 67.6831 54.3502 63.044 53.7929C60.7679 53.343 58.352 53.069 55.7976 52.9709C56.4614 52.8186 56.944 52.5446 57.2469 52.1489Z" fill="#587791"/>
<path fill-rule="evenodd" clip-rule="evenodd" d="M46.3771 51.0537C46.8604 51.0537 47.343 51.0537 47.8263 51.0537C50.8104 51.7162 53.9502 52.0817 57.2466 52.1496C56.9437 52.5453 56.4611 52.8193 55.7973 52.9716C58.3517 53.0697 60.7676 53.3437 63.0437 53.7936C62.0488 53.7076 61.0821 53.7991 60.1452 54.0676C61.3959 54.906 62.8452 55.454 64.493 55.7116C63.0437 56.0771 61.5944 56.0771 60.1452 55.7116C60.3865 55.5291 60.6285 55.3461 60.8698 55.1636C60.206 54.9586 59.6017 54.6846 59.0582 54.3416C58.3198 54.9921 57.4742 55.54 56.522 55.9856C55.122 55.4266 53.6727 55.3351 52.1742 55.7116C53.1401 55.894 54.1068 56.0771 55.0727 56.2596C52.1843 56.533 49.2857 56.6245 46.3771 56.5336C43.9459 56.3094 41.772 56.6749 39.8553 57.6295C39.6227 56.7812 38.8981 56.4157 37.6814 56.5336C37.9285 54.4216 38.8944 52.5036 40.5799 50.7797C42.5307 50.544 44.4633 50.6355 46.3771 51.0537Z" fill="#2E8AAE"/>
<path fill-rule="evenodd" clip-rule="evenodd" d="M134.058 53.7932C131.353 54.8404 128.454 55.5709 125.362 55.9852C127.96 54.7215 130.858 53.991 134.058 53.7932Z" fill="#6C717C"/>
<path fill-rule="evenodd" clip-rule="evenodd" d="M63.0439 53.7925C67.683 54.3498 72.2721 55.1718 76.812 56.2585C80.9055 57.6849 85.012 59.0548 89.1308 60.3684C88.9721 61.0123 89.2134 61.5603 89.8555 62.0123C91.2721 62.5346 92.4801 63.2656 93.4787 64.2043C92.9953 64.5698 92.5127 64.9348 92.0294 65.3003C93.1787 66.2171 93.662 67.3131 93.4787 68.5882C83.691 62.8573 72.5794 59.2954 60.1453 57.9024C55.425 57.5846 50.8359 57.1281 46.3772 56.5325C49.2859 56.6234 52.1844 56.5319 55.0729 56.2585C54.1069 56.076 53.1402 55.8929 52.1743 55.7105C53.6729 55.334 55.1221 55.4255 56.5221 55.9845C57.4743 55.5389 58.32 54.991 59.0584 54.3405C59.6018 54.6835 60.2062 54.9575 60.87 55.1625C60.6286 55.345 60.3866 55.528 60.1453 55.7105C61.5946 56.076 63.0439 56.076 64.4931 55.7105C62.8453 55.4529 61.396 54.9049 60.1453 54.0665C61.0823 53.798 62.0489 53.7065 63.0439 53.7925Z" fill="#479CB9"/>
<path fill-rule="evenodd" clip-rule="evenodd" d="M158.696 48.3147C159.715 48.5739 160.198 49.1219 160.145 49.9587C159.904 49.9587 159.662 49.9587 159.421 49.9587C153.365 50.4694 147.326 51.1089 141.305 51.8766C138.69 52.2608 136.274 52.9003 134.058 53.7946C130.859 53.9924 127.961 54.7229 125.363 55.9866C122.832 56.4852 120.658 57.3982 118.841 58.7265C111.564 62.2249 106.129 66.9737 102.537 72.9742C99.9852 67.4949 95.5163 63.2934 89.1308 60.3705C86.0011 58.2706 82.3779 56.7181 78.2613 55.7126C71.4265 53.9299 64.4221 52.743 57.2468 52.1506C54.3156 51.2316 51.1757 50.8661 47.8265 51.0546C47.3431 51.0546 46.8605 51.0546 46.3772 51.0546C46.3772 50.6891 46.3772 50.3242 46.3772 49.9587C54.6301 50.2721 62.8424 50.9116 71.0149 51.8766C76.5772 52.7973 81.891 54.1672 86.9569 55.9866C90.291 57.8629 93.5518 59.8723 96.7395 62.0144C99.2504 64.5335 101.182 67.2735 102.537 70.2343C106.787 61.7229 114.637 55.969 126.087 52.9726C129.897 52.406 133.521 51.584 136.957 50.5067C144.221 49.8655 151.467 49.135 158.696 48.3147Z" fill="#E4623A"/>
<path fill-rule="evenodd" clip-rule="evenodd" d="M159.419 49.9569C159.66 49.9569 159.902 49.9569 160.144 49.9569C161.613 49.8681 163.062 49.9596 164.492 50.2309C166.386 51.9088 167.594 53.8268 168.115 55.9848C167.39 55.9848 166.665 55.9848 165.941 55.9848C149.985 55.3852 134.768 57.8512 120.289 63.3826C117.348 64.6748 114.691 66.2278 112.318 68.0405C109.272 66.1527 109.755 64.6918 113.767 63.6566C115.215 61.8356 116.905 60.1917 118.839 58.7247C120.657 57.3964 122.831 56.4834 125.361 55.9848C128.453 55.5705 131.352 54.84 134.057 53.7928C142.705 52.9116 151.159 51.6332 159.419 49.9569Z" fill="#3992B1"/>
<path fill-rule="evenodd" clip-rule="evenodd" d="M136.957 50.5053C133.52 51.5826 129.897 52.4046 126.087 52.9712C114.637 55.9676 106.787 61.7215 102.536 70.2329C101.182 67.2721 99.25 64.5322 96.7392 62.0131C93.5515 59.871 90.2906 57.8615 86.9565 55.9852C88.8892 56.3507 90.821 56.7156 92.7536 57.0812C92.7747 58.8106 93.9826 59.7236 96.3768 59.8211C97.4334 61.5725 98.8826 63.034 100.725 64.205C101.384 65.0374 101.988 65.9504 102.536 66.945C103.305 64.5064 104.634 62.3145 106.522 60.3691C108.909 60.2102 110.359 59.2967 110.87 57.6291C112.92 57.725 114.128 56.9946 114.493 55.4372C121.199 51.9399 128.688 50.2959 136.957 50.5053Z" fill="#D9B99B"/>
<path fill-rule="evenodd" clip-rule="evenodd" d="M167.39 61.4644C167.997 61.6518 168.239 62.0167 168.115 62.5603C168.115 62.7428 168.115 62.9258 168.115 63.1083C164.25 63.1083 160.385 63.1083 156.521 63.1083C160.324 62.9116 163.947 62.3636 167.39 61.4644Z" fill="#96BCC6"/>
<path fill-rule="evenodd" clip-rule="evenodd" d="M36.2316 62.561C44.4534 63.4784 52.907 64.3004 61.5939 65.027C75.4729 65.9827 87.0671 70.2756 96.3765 77.9047C92.1997 76.1249 88.0932 74.2069 84.0577 72.1509C81.865 71.5026 79.691 70.8636 77.536 70.2329C65.7418 67.1389 53.5439 65.3125 40.9418 64.753C40.3983 65.096 39.7939 65.37 39.1302 65.575C39.8584 66.4008 40.8244 67.0398 42.0287 67.4929C54.5889 68.8805 66.9077 70.8899 78.9852 73.5208C84.157 74.9253 89.2294 76.6608 94.2026 78.7267C94.8092 79.2807 95.0505 79.9202 94.9273 80.6447C87.7592 77.5672 80.0302 75.8317 71.7389 75.4388C58.7106 74.7708 45.6671 74.4968 32.6084 74.6168C32.8302 76.1978 32.5889 77.6592 31.8838 79.0007C31.8838 77.7223 31.8838 76.4433 31.8838 75.1648C29.7099 75.1648 27.536 75.1648 25.3621 75.1648C26.5997 71.2834 28.0489 67.4475 29.7099 63.657C32.141 63.8811 34.315 63.5156 36.2316 62.561Z" fill="#2887A6"/>
<path fill-rule="evenodd" clip-rule="evenodd" d="M168.116 62.561C169.233 63 170.441 63.1825 171.739 63.109C171.739 63.8395 171.739 64.5705 171.739 65.301C152.285 66.4364 133.686 70.1808 115.942 76.5348C114.809 76.9507 114.085 77.5902 113.768 78.4527C113.046 78.4056 112.443 78.5886 111.957 79.0007C112.02 77.2789 113.107 75.909 115.217 74.8908C124.989 69.7052 135.859 66.5997 147.826 65.575C153.487 65.0127 159.163 64.5563 164.855 64.205C166.294 64.1672 167.381 63.8022 168.116 63.109C168.116 62.9265 168.116 62.7435 168.116 62.561Z" fill="#197294"/>
<path fill-rule="evenodd" clip-rule="evenodd" d="M77.5362 70.2328C76.4304 70.5644 75.7057 71.2033 75.3623 72.1508C76.6775 72.5656 77.8847 73.0221 78.9854 73.5208C66.9079 70.8899 54.5891 68.8804 42.0289 67.4929C40.8246 67.0397 39.8586 66.4007 39.1304 65.5749C39.7941 65.37 40.3985 65.096 40.942 64.7529C53.5441 65.3124 65.742 67.1389 77.5362 70.2328Z" fill="#1A799C"/>
<path fill-rule="evenodd" clip-rule="evenodd" d="M171.74 65.2998C173.616 68.4595 175.065 71.7474 176.088 75.1636C174.155 75.1636 172.223 75.1636 170.291 75.1636C156.388 74.4342 142.378 74.5252 128.262 75.4376C124.244 76.0946 120.38 76.9166 116.667 77.9036C115.701 78.086 114.735 78.2691 113.769 78.4516C114.085 77.589 114.81 76.9495 115.943 76.5336C133.686 70.1797 152.285 66.4352 171.74 65.2998Z" fill="#2084A2"/>
<path fill-rule="evenodd" clip-rule="evenodd" d="M165.942 55.9859C165.804 57.9214 166.287 59.7478 167.391 61.4658C163.948 62.365 160.325 62.913 156.521 63.1097C141.042 63.1459 127.031 66.5254 114.492 73.2476C111.009 75.7031 108.352 78.5346 106.521 81.7414C104.106 81.7414 101.69 81.7414 99.2749 81.7414C98.4923 80.3736 97.5257 79.0946 96.3764 77.9055C87.067 70.2764 75.4728 65.9834 61.5938 65.0277C52.9068 64.3011 44.4532 63.4791 36.2314 62.5618C37.6227 61.006 38.8307 59.362 39.8546 57.6298C41.7713 56.6753 43.9452 56.3097 46.3764 56.5339C50.8351 57.1295 55.4242 57.586 60.1445 57.9038C72.5785 59.2968 83.6901 62.8588 93.4778 68.5896C97.4967 71.5422 100.516 75.0132 102.536 79.0014C104.549 74.6674 107.81 71.0139 112.318 68.0417C114.692 66.2289 117.349 64.6759 120.289 63.3837C134.768 57.8523 149.986 55.3864 165.942 55.9859Z" fill="#EAE7DB"/>
<path fill-rule="evenodd" clip-rule="evenodd" d="M118.84 58.7258C116.906 60.1928 115.215 61.8368 113.768 63.6577C109.756 64.6929 109.273 66.1538 112.318 68.0417C107.81 71.0139 104.549 74.6674 102.536 79.0014C100.516 75.0132 97.4966 71.5422 93.4778 68.5896C93.6611 67.3145 93.1778 66.2185 92.0285 65.3017C92.5119 64.9362 92.9945 64.5712 93.4778 64.2057C92.4793 63.267 91.2713 62.536 89.8546 62.0138C89.2126 61.5617 88.9713 61.0137 89.13 60.3698C95.5155 63.2928 99.9843 67.4942 102.536 72.9736C106.129 66.9731 111.563 62.2242 118.84 58.7258Z" fill="#40829F"/>
<path fill-rule="evenodd" clip-rule="evenodd" d="M156.521 63.1099C160.385 63.1099 164.25 63.1099 168.115 63.1099C167.38 63.8031 166.293 64.168 164.854 64.2058C159.162 64.5571 153.486 65.0136 147.825 65.5758C135.858 66.6006 124.988 69.706 115.216 74.8916C113.106 75.9098 112.019 77.2798 111.956 79.0016C112.442 78.5895 113.045 78.4064 113.767 78.4536C112.318 79.3671 110.869 80.28 109.419 81.1935C108.784 81.1217 108.301 81.3042 107.97 81.7415C109.595 82.2753 111.286 82.4583 113.042 82.2895C111.593 82.655 110.144 83.02 108.695 83.3855C108.695 83.568 108.695 83.751 108.695 83.9335C108.211 84.1159 107.729 84.299 107.245 84.4815C103.794 84.6316 100.412 84.4491 97.1004 83.9335C97.0345 82.729 97.5171 82.5465 98.5497 83.3855C101.167 83.9395 103.824 84.031 106.521 83.6595C107.456 82.9515 107.456 82.3125 106.521 81.7415C108.351 78.5347 111.008 75.7032 114.492 73.2477C127.031 66.5255 141.041 63.146 156.521 63.1099Z" fill="#3185A2"/>
<path fill-rule="evenodd" clip-rule="evenodd" d="M77.5355 70.2332C79.6906 70.8639 81.8645 71.5028 84.0573 72.1511C88.0928 74.2072 92.1993 76.1251 96.3761 77.905C97.5254 79.0941 98.492 80.3732 99.2746 81.7409C98.6196 82.1295 98.3783 82.6775 98.55 83.3849C97.5174 82.5459 97.0348 82.7284 97.1007 83.9329C96.8594 83.9329 96.6174 83.9329 96.3761 83.9329C96.3761 83.7504 96.3761 83.5674 96.3761 83.3849C74.637 83.0194 52.8978 82.6544 31.1587 82.2889C53.1406 82.3804 75.121 82.2889 97.1007 82.0149C96.7065 81.622 96.2232 81.348 95.6515 81.1929C95.6515 80.8274 95.4101 80.645 94.9268 80.645C95.05 79.9205 94.8087 79.281 94.2022 78.727C89.229 76.6611 84.1565 74.9256 78.9848 73.5211C77.8841 73.0224 76.6768 72.5659 75.3616 72.1511C75.7051 71.2036 76.4297 70.5647 77.5355 70.2332Z" fill="#27688E"/>
<path fill-rule="evenodd" clip-rule="evenodd" d="M170.289 75.1662C169.682 75.3536 169.44 75.7186 169.565 76.2622C159.9 76.1707 150.238 76.2622 140.579 76.5362C132.639 77.3171 124.668 77.7735 116.666 77.9062C120.379 76.9192 124.243 76.0972 128.26 75.4402C142.377 74.5278 156.387 74.4368 170.289 75.1662Z" fill="#E1E3DC"/>
<path fill-rule="evenodd" clip-rule="evenodd" d="M94.9275 80.6442C95.4108 80.6442 95.6521 80.8266 95.6521 81.1922C74.3964 81.9226 53.1398 81.9226 31.884 81.1922C31.884 80.4617 31.884 79.7307 31.884 79.0002C32.5891 77.6587 32.8304 76.1972 32.6087 74.6163C45.6674 74.4963 58.7108 74.7703 71.7391 75.4383C80.0304 75.8312 87.7594 77.5667 94.9275 80.6442Z" fill="#EFECDF"/>
<path fill-rule="evenodd" clip-rule="evenodd" d="M169.566 76.2619C169.6 78.1628 170.082 79.9893 171.015 81.7418C162.69 82.287 154.236 82.4695 145.653 82.2898C133.575 81.9242 121.498 81.5593 109.421 81.1938C110.87 80.2803 112.319 79.3673 113.768 78.4538C114.734 78.2713 115.701 78.0883 116.667 77.9058C124.668 77.7732 132.639 77.3167 140.58 76.5359C150.239 76.2619 159.901 76.1704 169.566 76.2619Z" fill="#F0ECDF"/>
<path fill-rule="evenodd" clip-rule="evenodd" d="M31.8833 81.1919C53.1391 81.9224 74.3957 81.9224 95.6515 81.1919C96.2232 81.347 96.7065 81.621 97.1007 82.0139C75.121 82.2879 53.1406 82.3794 31.1587 82.2879C31.1587 82.1054 31.1587 81.9224 31.1587 81.7399C31.1587 81.3744 31.4 81.1919 31.8833 81.1919Z" fill="#C4D6DD"/>
<path fill-rule="evenodd" clip-rule="evenodd" d="M109.421 81.1937C121.498 81.5592 133.575 81.9241 145.653 82.2896C144.204 82.2896 142.754 82.2896 141.305 82.2896C131.885 82.2896 122.464 82.2896 113.044 82.2896C111.288 82.4584 109.597 82.2754 107.972 81.7417C108.303 81.3044 108.786 81.1219 109.421 81.1937Z" fill="#ABC1CE"/>
<path fill-rule="evenodd" clip-rule="evenodd" d="M99.276 81.74C101.691 81.74 104.107 81.74 106.522 81.74C107.458 82.311 107.458 82.95 106.522 83.658C103.826 84.0295 101.169 83.938 98.5514 83.384C98.3796 82.6765 98.6209 82.1285 99.276 81.74Z" fill="#6A404B"/>
<path fill-rule="evenodd" clip-rule="evenodd" d="M171.014 81.7397C172.033 81.9989 172.517 82.5469 172.464 83.3837C169.806 83.3837 167.15 83.3837 164.493 83.3837C156.763 83.0182 149.034 82.6532 141.304 82.2877C142.753 82.2877 144.203 82.2877 145.652 82.2877C154.235 82.4675 162.69 82.285 171.014 81.7397Z" fill="#386489"/>
<path fill-rule="evenodd" clip-rule="evenodd" d="M31.1608 81.74C31.1608 81.9225 31.1608 82.1055 31.1608 82.288C52.8999 82.6535 74.639 83.0184 96.3782 83.384C74.3977 83.384 52.4166 83.384 30.4361 83.384C30.2644 82.6765 30.5057 82.1285 31.1608 81.74Z" fill="#334A70"/>
<path fill-rule="evenodd" clip-rule="evenodd" d="M113.043 82.2888C122.464 82.2888 131.884 82.2888 141.304 82.2888C149.034 82.6543 156.763 83.0193 164.493 83.3848C145.893 83.3848 127.295 83.3848 108.696 83.3848C110.145 83.0193 111.594 82.6543 113.043 82.2888Z" fill="#284E7C"/>
<path fill-rule="evenodd" clip-rule="evenodd" d="M30.4352 83.3862C52.4157 83.3862 74.3968 83.3862 96.3773 83.3862C96.3773 83.5687 96.3773 83.7517 96.3773 83.9342C70.0374 83.5725 43.9505 83.9375 18.1164 85.0302C16.9946 84.8543 16.5115 84.3063 16.6671 83.3862C21.2565 83.3862 25.8459 83.3862 30.4352 83.3862Z" fill="#67403F"/>
<path fill-rule="evenodd" clip-rule="evenodd" d="M108.696 83.9335C108.696 83.7511 108.696 83.568 108.696 83.3856C127.295 83.3856 145.894 83.3856 164.493 83.3856C167.15 83.3856 169.807 83.3856 172.464 83.3856C173.681 83.2677 174.405 83.6332 174.638 84.4815C152.71 83.9379 130.73 83.7554 108.696 83.9335Z" fill="#804C47"/>
<path fill-rule="evenodd" clip-rule="evenodd" d="M96.3771 83.9328C96.4575 84.271 96.6988 84.545 97.1017 84.7548C100.618 85.2014 104 85.1099 107.247 84.4808C107.73 84.2984 108.213 84.1153 108.696 83.9328C130.73 83.7548 152.71 83.9372 174.638 84.4808C175.915 84.8984 176.639 85.6294 176.812 86.6728C169.861 86.3144 162.856 86.1314 155.797 86.1248C148.775 86.1259 142.011 86.4909 135.508 87.2208C134.951 86.8027 134.589 86.2547 134.421 85.5768C134.084 85.9023 133.963 86.2678 134.058 86.6728C121.312 86.1325 108.51 85.95 95.6525 86.1248C85.2698 85.8399 74.8836 85.6574 64.493 85.5768C59.6619 85.5768 54.8314 85.5768 50.0003 85.5768C39.614 85.5768 29.2271 85.5768 18.8408 85.5768C18.8408 85.2113 18.5993 85.0288 18.1162 85.0288C43.9503 83.9361 70.0372 83.5712 96.3771 83.9328Z" fill="#DE6A33"/>
<path fill-rule="evenodd" clip-rule="evenodd" d="M96.3772 83.9329C96.6185 83.9329 96.8605 83.9329 97.1018 83.9329C100.413 84.4485 103.795 84.631 107.247 84.4809C104 85.1099 100.618 85.2015 97.1018 84.7548C96.6989 84.545 96.4576 84.271 96.3772 83.9329Z" fill="#575C60"/>
<path fill-rule="evenodd" clip-rule="evenodd" d="M18.8413 85.5759C29.2275 85.5759 39.6145 85.5759 50.0007 85.5759C51.6993 88.8721 50.4913 91.2465 46.3775 92.6998C40.6109 93.3245 34.8138 93.69 28.9862 93.7958C26.2771 93.7881 23.8616 93.4231 21.7399 92.6998C22.3454 89.9083 21.3791 87.5339 18.8413 85.5759Z" fill="#FAEEDB"/>
<path fill-rule="evenodd" clip-rule="evenodd" d="M176.812 86.673C177.259 86.7338 177.621 86.9163 177.899 87.221C178.382 89.0474 178.382 90.8744 177.899 92.7009C177.626 93.4911 177.022 94.0391 176.087 94.3448C162.434 94.5257 148.908 94.3432 135.508 93.7969C135.508 91.6049 135.508 89.4129 135.508 87.221C142.011 86.4911 148.775 86.1261 155.797 86.125C162.856 86.1316 169.861 86.3146 176.812 86.673Z" fill="#F4812F"/>
<path fill-rule="evenodd" clip-rule="evenodd" d="M115.218 86.6736C120.29 86.6736 125.362 86.6736 130.435 86.6736C130.652 89.1938 130.411 91.6597 129.71 94.0714C124.886 94.3454 120.054 94.4364 115.218 94.3454C115.218 91.788 115.218 89.2311 115.218 86.6736Z" fill="#F89233"/>
<path fill-rule="evenodd" clip-rule="evenodd" d="M64.4924 85.5762C74.883 85.6567 85.2692 85.8392 95.6519 86.1242C102.042 86.6683 108.563 86.8513 115.217 86.6722C115.217 89.2296 115.217 91.7865 115.217 94.344C98.7968 94.7287 82.3721 94.9112 65.9417 94.892C67.812 92.511 67.812 90.136 65.9417 87.7681C64.9953 87.2382 64.512 86.5072 64.4924 85.5762Z" fill="#F58230"/>
<path fill-rule="evenodd" clip-rule="evenodd" d="M135.507 87.2199C135.507 89.4119 135.507 91.6038 135.507 93.7958C135.029 94.4632 134.545 95.1937 134.058 95.9877C133.48 95.7373 133.239 95.3718 133.334 94.8918C134.95 92.2351 135.191 89.4951 134.058 86.6719C133.963 86.2669 134.084 85.9014 134.421 85.5759C134.589 86.2538 134.951 86.8018 135.507 87.2199Z" fill="#803B2A"/>
<path fill-rule="evenodd" clip-rule="evenodd" d="M50.0007 85.5759C54.8319 85.5759 59.6623 85.5759 64.4935 85.5759C64.5131 86.507 64.9964 87.238 65.9428 87.7679C66.3203 90.6974 65.5957 93.4374 63.7688 95.9877C63.5275 95.9877 63.2855 95.9877 63.0442 95.9877C48.3102 95.9877 33.5754 95.9877 18.8413 95.9877C19.817 94.8715 20.7832 93.7755 21.7399 92.6998C23.8616 93.4231 26.2771 93.7881 28.9862 93.7958C34.8138 93.69 40.6109 93.3245 46.3775 92.6998C50.4913 91.2465 51.6993 88.8721 50.0007 85.5759Z" fill="#EFD5BA"/>
<path fill-rule="evenodd" clip-rule="evenodd" d="M65.9412 87.769C67.8115 90.1369 67.8115 92.5119 65.9412 94.8929C65.2166 95.2584 64.492 95.6234 63.7673 95.9889C65.5941 93.4385 66.3188 90.6986 65.9412 87.769Z" fill="#F4A64C"/>
<path fill-rule="evenodd" clip-rule="evenodd" d="M95.6522 86.1254C108.509 85.9506 121.312 86.1331 134.058 86.6734C135.191 89.4966 134.949 92.2366 133.333 94.8932C122.461 94.8017 111.591 94.8932 100.725 95.1672C100.362 95.4412 100 95.7152 99.6377 95.9892C89.1326 95.1957 78.6253 95.3782 68.1159 96.5372C66.2862 96.5356 64.5949 96.3525 63.0435 95.9892C63.2848 95.9892 63.5268 95.9892 63.7681 95.9892C64.4927 95.6237 65.2174 95.2588 65.942 94.8932C82.3724 94.9124 98.7971 94.7299 115.217 94.3453C120.054 94.4362 124.885 94.3453 129.71 94.0713C130.411 91.6596 130.652 89.1936 130.435 86.6734C125.362 86.6734 120.29 86.6734 115.217 86.6734C108.564 86.8526 102.042 86.6696 95.6522 86.1254Z" fill="#E97430"/>
<path fill-rule="evenodd" clip-rule="evenodd" d="M135.508 93.7961C148.908 94.3425 162.434 94.525 176.087 94.3441C175.635 95.5793 174.669 96.4928 173.189 97.0841C121.376 97.2666 69.6851 97.0835 18.1162 96.5361C18.1162 96.1706 18.3577 95.9881 18.8408 95.9881C33.5749 95.9881 48.3097 95.9881 63.0438 95.9881C64.5952 96.3514 66.2865 96.5344 68.1162 96.5361C78.6256 95.3771 89.1329 95.1946 99.638 95.9881C100 95.7141 100.363 95.4401 100.725 95.1661C111.592 94.8921 122.461 94.8006 133.334 94.8921C133.239 95.3722 133.48 95.7377 134.058 95.9881C134.545 95.1941 135.029 94.4636 135.508 93.7961Z" fill="#E26F3A"/>
<path fill-rule="evenodd" clip-rule="evenodd" d="M18.1157 96.5359C69.6846 97.0833 121.375 97.2664 173.188 97.0839C173.188 97.2664 173.188 97.4494 173.188 97.6319C121.256 97.6319 69.3237 97.6319 17.3911 97.6319C17.2667 97.0883 17.5083 96.7233 18.1157 96.5359Z" fill="#934C39"/>
<path fill-rule="evenodd" clip-rule="evenodd" d="M17.3913 97.6305C69.3239 97.6305 121.256 97.6305 173.188 97.6305C173.91 97.6776 174.514 97.4946 175 97.0825C181.956 97.5264 188.96 97.8919 196.014 98.1785C197.343 98.361 198.672 98.544 200 98.7265C198.111 99.1747 196.178 99.4487 194.203 99.5485C133.093 100.633 71.9812 100.633 10.8696 99.5485C7.22254 99.4548 3.59935 99.1808 0 98.7265C0.603841 98.544 1.20775 98.361 1.81159 98.1785C6.9808 97.6798 12.1741 97.4968 17.3913 97.6305Z" fill="#2B2B42"/>
</svg>
