<svg width="83" height="20" viewBox="0 0 83 20" fill="none" xmlns="http://www.w3.org/2000/svg">
<path fill-rule="evenodd" clip-rule="evenodd" d="M54.4477 0C55.8709 0.0196917 57.2735 0.173533 58.6562 0.461525C58.9841 0.673519 59.2389 0.929819 59.4214 1.23073C57.1415 4.15465 56.249 7.33394 56.7433 10.7689C55.1815 10.8169 53.6511 10.6631 52.1521 10.3074C51.9383 10.0843 51.8109 9.82802 51.7695 9.53819C53.5387 6.50443 54.4316 3.32513 54.4477 0Z" fill="#F48323"/>
<path fill-rule="evenodd" clip-rule="evenodd" d="M36.8482 2.15338C38.3839 2.1023 39.9143 2.15369 41.4393 2.30722C41.2982 3.38319 41.4895 4.46008 42.0132 5.5379C42.4096 4.46993 42.7283 3.39303 42.9697 2.30722C43.9901 2.10199 45.0101 2.10199 46.0305 2.30722C46.4314 2.84751 46.4314 3.4118 46.0305 3.99948C46.5405 5.64035 47.0509 5.64035 47.5609 3.99948C47.1599 3.4118 47.1599 2.84751 47.5609 2.30722C48.7086 2.10199 49.8564 2.10199 51.0042 2.30722C51.2181 2.53029 51.3455 2.78659 51.3868 3.07643C49.9804 4.92807 48.7691 6.87663 47.7522 8.92241C46.7318 10.1531 45.7118 10.1531 44.6914 8.92241C44.5112 8.3852 44.256 7.87229 43.9262 7.384C43.4587 8.79442 42.3744 9.46086 40.6742 9.38394C39.6209 7.43353 38.4092 5.53605 37.0395 3.69179C36.8505 3.18904 36.787 2.67613 36.8482 2.15338Z" fill="#F48323"/>
<path fill-rule="evenodd" clip-rule="evenodd" d="M61.7165 1.53906C62.9489 1.84828 64.2241 2.10489 65.5425 2.30827C66.1699 3.1624 65.9147 3.77777 64.7773 4.15437C62.0953 4.51067 61.0749 3.639 61.7165 1.53906Z" fill="#F38323"/>
<path fill-rule="evenodd" clip-rule="evenodd" d="M29.5783 3.07735C34.2264 3.05489 36.0759 4.90099 35.1259 8.61565C32.8495 11.1925 30.2991 11.3977 27.474 9.23102C25.6506 6.54771 26.3519 4.49639 29.5783 3.07735Z" fill="#F48323"/>
<path fill-rule="evenodd" clip-rule="evenodd" d="M59.8034 4.92307C61.183 4.83415 62.5221 4.93661 63.8206 5.23076C63.016 7.48577 62.4421 9.79339 62.099 12.1536C60.6095 12.2767 59.2065 12.0204 57.8904 11.3844C57.763 11.1792 57.6352 10.9743 57.5078 10.7691C58.2845 9.67955 58.9858 8.55127 59.6121 7.38454C59.8022 6.57041 59.8661 5.74982 59.8034 4.92307Z" fill="#F68422"/>
<path fill-rule="evenodd" clip-rule="evenodd" d="M69.751 4.30768C72.591 4.18829 74.1852 5.2138 74.5334 7.38451C72.2772 8.52386 71.3208 8.01095 71.6639 5.84609C71.2813 5.84609 70.8988 5.84609 70.5162 5.84609C70.2591 6.89468 70.6416 7.71527 71.6639 8.30756C70.7782 8.5334 70.0769 8.94385 69.5597 9.53829C68.7168 10.7909 68.2068 12.1241 68.0293 13.5382C67.8965 14.0551 67.5139 14.3628 66.8815 14.4612C65.3366 14.0345 63.9975 13.368 62.8643 12.4613C64.597 10.9595 66 9.26722 67.0728 7.38451C66.7874 7.00421 66.66 6.59376 66.6902 6.15378C68.0144 5.87778 69.0344 5.26242 69.751 4.30768Z" fill="#F28223"/>
<path fill-rule="evenodd" clip-rule="evenodd" d="M22.3097 12.3071C22.3055 12.7739 22.0507 13.133 21.5445 13.384C20.3042 13.8883 19.0286 14.196 17.7186 14.3071C17.647 12.2877 16.6906 10.5955 14.8491 9.2303C14.8828 8.26356 15.4567 7.49435 16.5708 6.92267C17.2346 6.72237 17.8724 6.77345 18.4838 7.07652C19.293 5.77748 20.5681 5.21349 22.3097 5.38426C23.9373 7.18267 25.4677 9.02877 26.9009 10.9226C25.7141 12.1708 24.1837 12.6324 22.3097 12.3071Z" fill="#F58322"/>
<path fill-rule="evenodd" clip-rule="evenodd" d="M9.30067 15.0775C9.04356 14.8415 8.72486 14.6363 8.34418 14.4622C8.12036 14.9231 8.31166 15.2308 8.91807 15.3852C10.0578 16.0966 11.0782 16.9172 11.9788 17.8467C10.9145 18.8048 9.63927 19.5226 8.15288 20.0005C7.89769 19.898 7.64288 19.7952 7.38769 19.6928C6.0796 16.7679 3.8477 14.4089 0.692284 12.6161C0.437208 12.3084 0.437208 12.0007 0.692284 11.693C1.80789 10.6724 3.14697 10.1085 4.70953 10.0008C5.45406 11.0438 6.15536 12.1207 6.8138 13.2314C7.1172 11.6656 6.54331 10.3321 5.09212 9.23155C6.3742 8.20143 7.77718 7.27838 9.30067 6.4624C9.82903 6.61624 10.0838 6.92393 10.0659 7.38545C8.52247 10.8017 9.92506 12.9044 14.2744 13.693C17.0417 13.544 17.5517 14.2622 15.8048 15.8467C14.9635 16.3689 14.0709 16.8304 13.1266 17.2313C12.0557 16.2661 10.7805 15.548 9.30067 15.0775Z" fill="#F58322"/>
<path fill-rule="evenodd" clip-rule="evenodd" d="M29.9619 5.23081C30.8843 5.11912 31.4582 5.4268 31.6836 6.15386C31.9965 6.99291 31.933 7.8135 31.4923 8.61532C30.2393 7.72396 29.7293 6.596 29.9619 5.23081Z" fill="white"/>
<path fill-rule="evenodd" clip-rule="evenodd" d="M22.3095 12.3071C20.5936 11.3357 19.701 10.0025 19.6313 8.3072C20.1371 8.2549 20.5836 8.35735 20.9704 8.61489C21.7004 9.77947 22.1469 11.0102 22.3095 12.3071Z" fill="white"/>
<path fill-rule="evenodd" clip-rule="evenodd" d="M74.7246 10.1538C76.633 10.3073 78.036 11.0766 78.9331 12.4614C77.7035 13.0786 77.1296 13.9503 77.2115 15.0767C78.3394 14.4798 79.2958 13.7617 80.0809 12.923C80.8867 13.2091 81.6519 13.5679 82.3765 13.9999C82.8536 14.4595 82.8536 14.9211 82.3765 15.3844C78.9561 16.4515 75.7679 17.836 72.8116 19.5382C70.4066 20.4658 68.7488 19.9529 67.8379 17.9997C68.8265 15.5506 70.1021 15.4478 71.6638 17.6921C72.0265 17.8407 72.4091 17.8917 72.8116 17.8459C73.6947 15.3201 74.3324 12.7562 74.7246 10.1538Z" fill="#F48323"/>
</svg>
