<svg width="47" height="37" viewBox="0 0 47 37" fill="none" xmlns="http://www.w3.org/2000/svg">
<path d="M2.71328 0.204178C2.22185 0.204178 1.75055 0.395431 1.40306 0.735862C1.05557 1.07629 0.860352 1.53802 0.860352 2.01946C0.860352 2.5009 1.05557 2.96263 1.40306 3.30306C1.75055 3.64349 2.22185 3.83474 2.71328 3.83474H6.82677L11.6888 22.8952C12.102 24.5108 13.5788 25.6181 15.278 25.6181H38.3839C40.0571 25.6181 41.4783 24.529 41.9174 22.9497L46.7202 5.65003H42.8402L38.3821 21.9876H15.2761L10.4159 2.9271C10.2151 2.14513 9.7523 1.45178 9.10156 0.95809C8.45082 0.464398 7.6498 0.198923 6.82677 0.204178H2.71328ZM36.0659 25.6181C33.0178 25.6181 30.5071 28.0778 30.5071 31.064C30.5071 34.0501 33.0178 36.5098 36.0659 36.5098C39.114 36.5098 41.6247 34.0501 41.6247 31.064C41.6247 28.0778 39.114 25.6181 36.0659 25.6181ZM19.3896 25.6181C16.3415 25.6181 13.8308 28.0778 13.8308 31.064C13.8308 34.0501 16.3415 36.5098 19.3896 36.5098C22.4377 36.5098 24.9484 34.0501 24.9484 31.064C24.9484 28.0778 22.4377 25.6181 19.3896 25.6181ZM24.9484 0.204178V9.28059H19.3896L26.8013 16.5417L34.213 9.28059H28.6542V0.204178H24.9484ZM19.3896 29.2487C20.4346 29.2487 21.2425 30.0402 21.2425 31.064C21.2425 32.0878 20.4346 32.8793 19.3896 32.8793C18.3445 32.8793 17.5367 32.0878 17.5367 31.064C17.5367 30.0402 18.3445 29.2487 19.3896 29.2487ZM36.0659 29.2487C37.111 29.2487 37.9188 30.0402 37.9188 31.064C37.9188 32.0878 37.111 32.8793 36.0659 32.8793C35.0209 32.8793 34.213 32.0878 34.213 31.064C34.213 30.0402 35.0209 29.2487 36.0659 29.2487Z" fill="black"/>
</svg>
