<svg width="48" height="48" viewBox="0 0 48 48" fill="none" xmlns="http://www.w3.org/2000/svg">
<path d="M16.3001 26.2004C8.40243 26.2004 2.0001 24.2304 2.0001 21.8004C2.0001 19.3703 8.40243 17.4004 16.3001 17.4004C24.1978 17.4004 30.6001 19.3703 30.6001 21.8004C30.6001 24.2304 24.1978 26.2004 16.3001 26.2004Z" stroke="black" stroke-width="3" stroke-linecap="round" stroke-linejoin="round"/>
<path d="M2.0001 31.7002C2.0001 34.1312 8.4021 36.1002 16.3001 36.1002C24.1981 36.1002 30.6001 34.1312 30.6001 31.7002" stroke="black" stroke-width="3" stroke-linecap="round" stroke-linejoin="round"/>
<path d="M2.0001 21.7998V41.1598C2.0001 43.8328 8.4021 45.9998 16.3001 45.9998C24.1981 45.9998 30.6001 43.8328 30.6001 41.1598V21.7998" stroke="black" stroke-width="3" stroke-linecap="round" stroke-linejoin="round"/>
<path d="M31.7 10.8C23.8023 10.8 17.4 8.83005 17.4 6.4C17.4 3.96995 23.8023 2 31.7 2C39.5977 2 46 3.96995 46 6.4C46 8.83005 39.5977 10.8 31.7 10.8Z" stroke="black" stroke-width="3" stroke-linecap="round" stroke-linejoin="round"/>
<path d="M37.2 21.8004C41.3624 21.2944 45.186 19.9854 46 17.4004M37.2 32.8004C41.3624 32.2944 45.186 30.9854 46 28.4004" stroke="black" stroke-width="3" stroke-linecap="round" stroke-linejoin="round"/>
<path d="M37.2 43.8004C41.3624 43.2944 45.186 41.9832 46 39.4004V6.40039M17.4 10.8004V6.40039" stroke="black" stroke-width="3" stroke-linecap="round" stroke-linejoin="round"/>
</svg>
