<svg width="47" height="47" viewBox="0 0 47 47" fill="none" xmlns="http://www.w3.org/2000/svg">
<path d="M44.8893 8.3549L23.7234 1.02086C23.3613 0.89539 22.9698 0.89539 22.6078 1.02086L1.44186 8.3549C1.09065 8.47661 0.785177 8.7101 0.568725 9.02231C0.352274 9.33452 0.235812 9.70961 0.23584 10.0944V28.4296C0.23584 28.9158 0.421671 29.3822 0.752452 29.726C1.08323 30.0699 1.53187 30.2631 1.99967 30.2631C2.46746 30.2631 2.9161 30.0699 3.24688 29.726C3.57766 29.3822 3.76349 28.9158 3.76349 28.4296V12.6384L11.1694 15.2031C9.20171 18.5075 8.57602 22.4886 9.42964 26.2722C10.2833 30.0558 12.5464 33.3326 15.7222 35.3831C11.7536 37.0012 8.32298 39.928 5.81394 43.9296C5.68345 44.1312 5.59281 44.3577 5.5473 44.5961C5.50178 44.8344 5.50229 45.0798 5.5488 45.3179C5.5953 45.556 5.68688 45.7822 5.81821 45.9832C5.94953 46.1842 6.11798 46.3561 6.31377 46.4888C6.50956 46.6216 6.72878 46.7126 6.95868 46.7565C7.18859 46.8004 7.42459 46.7963 7.65298 46.7446C7.88137 46.6928 8.09759 46.5944 8.28907 46.455C8.48055 46.3157 8.64346 46.1381 8.76835 45.9327C12.091 40.6339 17.3383 37.5971 23.1656 37.5971C28.9928 37.5971 34.2402 40.6339 37.5628 45.9327C37.8215 46.3324 38.2211 46.6102 38.6753 46.706C39.1295 46.8019 39.6017 46.7081 39.9898 46.4449C40.378 46.1817 40.6509 45.7703 40.7496 45.2996C40.8483 44.829 40.7648 44.3368 40.5172 43.9296C38.0082 39.928 34.5643 37.0012 30.6089 35.3831C33.7817 33.3327 36.0427 30.058 36.8962 26.2772C37.7497 22.4964 37.1259 18.518 35.1618 15.2145L44.8893 11.8454C45.2406 11.7238 45.5461 11.4903 45.7627 11.1781C45.9792 10.8659 46.0957 10.4908 46.0957 10.1059C46.0957 9.72102 45.9792 9.34589 45.7627 9.03368C45.5461 8.72146 45.2406 8.488 44.8893 8.36636V8.3549ZM33.7485 22.929C33.749 24.6682 33.3528 26.3828 32.5924 27.932C31.832 29.4812 30.729 30.8209 29.3741 31.8412C28.0191 32.8615 26.4508 33.5334 24.7977 33.8016C23.1446 34.0698 21.4539 33.9268 19.8642 33.3842C18.2746 32.8417 16.8314 31.9151 15.653 30.6805C14.4746 29.4458 13.5945 27.9384 13.0851 26.2817C12.5757 24.6251 12.4514 22.8665 12.7224 21.1503C12.9934 19.434 13.652 17.809 14.6441 16.4086L22.6078 19.1589C22.9698 19.2843 23.3613 19.2843 23.7234 19.1589L31.6871 16.4086C33.027 18.2972 33.7494 20.5824 33.7485 22.929Z" fill="black"/>
</svg>
