<svg width="53" height="43" viewBox="0 0 53 43" fill="none" xmlns="http://www.w3.org/2000/svg">
<path d="M17.6021 29.7382C17.4094 29.7382 17.2167 29.7669 17.033 29.8277C15.9882 30.1733 14.8895 30.395 13.7327 30.395C12.5759 30.395 11.4771 30.1733 10.4316 29.8277C10.2478 29.7669 10.0559 29.7382 9.86324 29.7382C4.86041 29.7382 0.808001 33.8829 0.834603 38.985C0.845889 41.1411 2.58632 42.8751 4.70402 42.8751H22.7613C24.879 42.8751 26.6194 41.1411 26.6307 38.985C26.6573 33.8829 22.6049 29.7382 17.6021 29.7382ZM13.7327 27.1108C18.0068 27.1108 21.4715 23.5819 21.4715 19.2286C21.4715 14.8754 18.0068 11.3465 13.7327 11.3465C9.45857 11.3465 5.99383 14.8754 5.99383 19.2286C5.99383 23.5819 9.45857 27.1108 13.7327 27.1108ZM48.5574 0.836914H17.6021C15.4683 0.836914 13.7327 2.66377 13.7327 4.90855V8.71908C15.6206 8.71908 17.3683 9.27576 18.8919 10.1806V6.09169H47.2676V29.7382H42.1084V24.4834H31.7899V29.7382H25.644C27.1837 31.1085 28.3139 32.9181 28.8435 34.993H48.5574C50.6912 34.993 52.4268 33.1661 52.4268 30.9213V4.90855C52.4268 2.66377 50.6912 0.836914 48.5574 0.836914Z" fill="black"/>
</svg>
