<svg width="13" height="12" viewBox="0 0 13 12" fill="none" xmlns="http://www.w3.org/2000/svg">
<path d="M12.689 5.58805C12.689 5.1793 12.3553 4.84555 11.9465 4.84555H8.64654C8.23779 4.84555 7.90404 4.5118 7.90404 4.10305V0.803047C7.90404 0.394297 7.57029 0.0605469 7.16154 0.0605469H6.33841C5.92966 0.0605469 5.59591 0.394297 5.59591 0.803047V4.10211C5.59591 4.51086 5.26216 4.84461 4.85341 4.84461H1.55341C1.14466 4.84461 0.810913 5.17836 0.810913 5.58711V6.41117C0.810913 6.81992 1.14466 7.15367 1.55341 7.15367H4.85341C5.26216 7.15367 5.59591 7.48742 5.59591 7.89617V11.1952C5.59591 11.604 5.92966 11.9377 6.33841 11.9377H7.16154C7.57029 11.9377 7.90404 11.604 7.90404 11.1952V7.89617C7.90404 7.48742 8.23779 7.15367 8.64654 7.15367H11.9465C12.3553 7.15367 12.689 6.81992 12.689 6.41117V5.58805Z" fill="#ED6C30"/>
</svg>
