<svg width="44" height="32" viewBox="0 0 44 32" fill="none" xmlns="http://www.w3.org/2000/svg">
<path fill-rule="evenodd" clip-rule="evenodd" d="M42.9524 4.62136C39.4603 2.71819 35.9683 1.7666 32.4762 1.7666C27.2381 1.7666 25.4912 2.71994 22 4.62136V30.5761C25.4921 28.8301 28.9841 27.9571 32.4762 27.9571C37.7143 27.9571 39.4612 28.8292 42.9524 30.5761V4.62136Z" stroke="white" stroke-width="2" stroke-linecap="round" stroke-linejoin="round"/>
<path d="M37.8608 7.75917C36.0676 7.25631 34.2727 7.00488 32.4761 7.00488C29.7811 7.00488 28.888 7.25631 27.0913 7.75917M37.8608 12.9973C36.0676 12.4944 34.2727 12.243 32.4761 12.243C29.7811 12.243 28.888 12.4944 27.0913 12.9973M37.8608 18.2354C36.0676 17.7325 34.2727 17.4811 32.4761 17.4811C29.7811 17.4811 28.888 17.7325 27.0913 18.2354M37.8608 23.4735C36.0676 22.9706 34.2727 22.7192 32.4761 22.7192C29.7811 22.7192 28.888 22.9706 27.0913 23.4735M16.9084 7.75917C15.1153 7.25631 13.3203 7.00488 11.5237 7.00488C8.82868 7.00488 7.93558 7.25631 6.13892 7.75917M16.9084 12.9973C15.1153 12.4944 13.3203 12.243 11.5237 12.243C8.82868 12.243 7.93558 12.4944 6.13892 12.9973M16.9084 18.2354C15.1153 17.7325 13.3203 17.4811 11.5237 17.4811C8.82868 17.4811 7.93558 17.7325 6.13892 18.2354M16.9084 23.4735C15.1153 22.9706 13.3203 22.7192 11.5237 22.7192C8.82868 22.7192 7.93558 22.9706 6.13892 23.4735" stroke="white" stroke-width="2" stroke-linecap="round" stroke-linejoin="round"/>
<path fill-rule="evenodd" clip-rule="evenodd" d="M22 4.62136C18.5079 2.71819 15.0159 1.7666 11.5238 1.7666C6.2857 1.7666 4.5388 2.71994 1.04761 4.62136V30.5761C4.53967 28.8301 8.03173 27.9571 11.5238 27.9571C16.7619 27.9571 18.5088 28.8292 22 30.5761V4.62136Z" stroke="white" stroke-width="2" stroke-linecap="round" stroke-linejoin="round"/>
</svg>
