<svg width="29" height="27" viewBox="0 0 29 27" fill="none" xmlns="http://www.w3.org/2000/svg">
<path d="M1.87305 13.1338C1.87305 8.38048 1.87305 6.00317 3.35036 4.52712C4.82767 3.05107 7.20372 3.0498 11.9571 3.0498H16.9991C21.7525 3.0498 24.1298 3.0498 25.6058 4.52712C27.0819 6.00443 27.0831 8.38048 27.0831 13.1338V15.6548C27.0831 20.4082 27.0831 22.7855 25.6058 24.2616C24.1285 25.7376 21.7525 25.7389 16.9991 25.7389H11.9571C7.20372 25.7389 4.82641 25.7389 3.35036 24.2616C1.87431 22.7843 1.87305 20.4082 1.87305 15.6548V13.1338Z" stroke="black" stroke-width="1.89076"/>
<path opacity="0.5" d="M8.17557 3.04994V1.15918M20.7806 3.04994V1.15918M1.87305 9.35246H27.0831" stroke="black" stroke-width="1.89076" stroke-linecap="round"/>
<path d="M10.6963 16.2863L12.587 14.3955V19.4375" stroke="black" stroke-width="1.89076" stroke-linecap="round" stroke-linejoin="round"/>
<path d="M15.7383 18.177V15.656C15.7383 15.3217 15.8711 15.0011 16.1075 14.7647C16.3439 14.5283 16.6645 14.3955 16.9988 14.3955C17.3331 14.3955 17.6537 14.5283 17.8901 14.7647C18.1265 15.0011 18.2593 15.3217 18.2593 15.656V18.177C18.2593 18.5113 18.1265 18.8319 17.8901 19.0683C17.6537 19.3047 17.3331 19.4375 16.9988 19.4375C16.6645 19.4375 16.3439 19.3047 16.1075 19.0683C15.8711 18.8319 15.7383 18.5113 15.7383 18.177Z" stroke="black" stroke-width="1.89076" stroke-linecap="round"/>
</svg>
