<svg width="9" height="9" viewBox="0 0 9 9" fill="none" xmlns="http://www.w3.org/2000/svg">
<path fill-rule="evenodd" clip-rule="evenodd" d="M1.06407 0.31952C0.946504 0.205967 0.789037 0.143135 0.62559 0.144555C0.462142 0.145975 0.305792 0.211535 0.190213 0.327114C0.0746336 0.442693 0.00907378 0.599044 0.00765347 0.762491C0.00623315 0.925939 0.069066 1.0834 0.182619 1.20098L3.48215 4.50051L0.182619 7.80004C0.12308 7.85755 0.0755901 7.92633 0.0429195 8.00239C0.010249 8.07844 -0.00694763 8.16024 -0.00766689 8.24301C-0.00838616 8.32578 0.00738634 8.40787 0.0387303 8.48448C0.0700742 8.56109 0.116362 8.63069 0.174892 8.68922C0.233423 8.74775 0.303024 8.79404 0.379635 8.82538C0.456246 8.85673 0.538332 8.8725 0.621103 8.87178C0.703875 8.87106 0.785674 8.85387 0.861728 8.82119C0.937783 8.78852 1.00657 8.74103 1.06407 8.68149L4.36361 5.38196L7.66314 8.68149C7.78071 8.79505 7.93818 8.85788 8.10162 8.85646C8.26507 8.85504 8.42142 8.78948 8.537 8.6739C8.65258 8.55832 8.71814 8.40197 8.71956 8.23852C8.72098 8.07508 8.65815 7.91761 8.54459 7.80004L5.24506 4.50051L8.54459 1.20098C8.65815 1.0834 8.72098 0.925939 8.71956 0.762491C8.71814 0.599044 8.65258 0.442693 8.537 0.327114C8.42142 0.211535 8.26507 0.145975 8.10162 0.144555C7.93818 0.143135 7.78071 0.205967 7.66314 0.31952L4.36361 3.61905L1.06407 0.31952Z" fill="#F24E1E"/>
</svg>
