<svg width="14" height="15" viewBox="0 0 14 15" fill="none" xmlns="http://www.w3.org/2000/svg">
<path fill-rule="evenodd" clip-rule="evenodd" d="M14 3.33301H0V5.66634C0.85911 5.66634 1.55556 6.36279 1.55556 7.2219V9.55523C1.55556 11.8476 1.55556 12.9938 2.14919 13.7912C2.3232 14.0249 2.53034 14.232 2.76408 14.406C3.56146 14.9997 4.70764 14.9997 7 14.9997C9.29236 14.9997 10.4385 14.9997 11.2359 14.406C11.4697 14.232 11.6768 14.0249 11.8508 13.7912C12.4444 12.9938 12.4444 11.8476 12.4444 9.55523V7.2219C12.4444 6.36279 13.1409 5.66634 14 5.66634V3.33301ZM6.05556 7.2219C6.05556 6.66962 5.60784 6.2219 5.05556 6.2219C4.50327 6.2219 4.05556 6.66962 4.05556 7.2219V11.1108C4.05556 11.6631 4.50327 12.1108 5.05556 12.1108C5.60784 12.1108 6.05556 11.6631 6.05556 11.1108V7.2219ZM9.94444 7.2219C9.94444 6.66962 9.49673 6.2219 8.94444 6.2219C8.39216 6.2219 7.94444 6.66962 7.94444 7.2219V11.1108C7.94444 11.6631 8.39216 12.1108 8.94444 12.1108C9.49673 12.1108 9.94444 11.6631 9.94444 11.1108V7.2219Z" fill="black"/>
<path d="M5.49744 1.28824C5.58606 1.20555 5.78136 1.13248 6.05302 1.08036C6.32469 1.02825 6.65756 1 6.99999 1C7.34242 1 7.67528 1.02825 7.94695 1.08036C8.21862 1.13248 8.41391 1.20555 8.50254 1.28824" stroke="black" stroke-width="2" stroke-linecap="round"/>
</svg>
