<svg width="35" height="35" viewBox="0 0 35 35" fill="none" xmlns="http://www.w3.org/2000/svg">
<path d="M14.5835 21.875L14.5835 17.5" stroke="black" stroke-width="2" stroke-linecap="round"/>
<path d="M20.4165 21.875L20.4165 17.5" stroke="black" stroke-width="2" stroke-linecap="round"/>
<path d="M4.375 10.208H30.625H30.25C28.3644 10.208 27.4216 10.208 26.8358 10.7938C26.25 11.3796 26.25 12.3224 26.25 14.208V25.1663C26.25 27.052 26.25 27.9948 25.6642 28.5806C25.0784 29.1663 24.1356 29.1663 22.25 29.1663H12.75C10.8644 29.1663 9.92157 29.1663 9.33579 28.5806C8.75 27.9948 8.75 27.052 8.75 25.1663V14.208C8.75 12.3224 8.75 11.3796 8.16421 10.7938C7.57843 10.208 6.63562 10.208 4.75 10.208H4.375Z" stroke="black" stroke-width="2" stroke-linecap="round"/>
<path d="M14.6826 4.91544C14.8487 4.7604 15.2149 4.6234 15.7243 4.52568C16.2337 4.42796 16.8578 4.375 17.4998 4.375C18.1419 4.375 18.766 4.42796 19.2754 4.52568C19.7848 4.62339 20.1509 4.7604 20.3171 4.91544" stroke="black" stroke-width="2" stroke-linecap="round"/>
</svg>
