<svg width="35" height="35" viewBox="0 0 35 35" fill="none" xmlns="http://www.w3.org/2000/svg">
<path d="M19.2084 4.375H13.1248C10.375 4.375 9.00005 4.375 8.14578 5.22927C7.2915 6.08354 7.2915 7.45847 7.2915 10.2083V24.7917C7.2915 27.5415 7.2915 28.9165 8.14578 29.7707C9.00005 30.625 10.375 30.625 13.1248 30.625H21.8748C24.6247 30.625 25.9996 30.625 26.8539 29.7707C27.7082 28.9165 27.7082 27.5415 27.7082 24.7917V12.8748C27.7082 12.2787 27.7082 11.9806 27.5972 11.7126C27.4862 11.4446 27.2754 11.2339 26.8539 10.8124L21.2708 5.22927C20.8493 4.80777 20.6385 4.59702 20.3705 4.48601C20.1025 4.375 19.8045 4.375 19.2084 4.375Z" stroke="black" stroke-width="2"/>
<path d="M13.125 18.958L21.875 18.958" stroke="black" stroke-width="2" stroke-linecap="round"/>
<path d="M13.125 24.792L18.9583 24.792" stroke="black" stroke-width="2" stroke-linecap="round"/>
<path d="M18.9585 4.375V10.2083C18.9585 11.5833 18.9585 12.2707 19.3856 12.6979C19.8128 13.125 20.5002 13.125 21.8752 13.125H27.7085" stroke="black" stroke-width="2"/>
</svg>
