<svg width="46" height="44" viewBox="0 0 46 44" fill="none" xmlns="http://www.w3.org/2000/svg">
<path d="M45.2223 22.0003C45.2223 21.4478 44.9882 20.9179 44.5714 20.5272C44.1547 20.1365 43.5894 19.917 43.0001 19.917C42.4107 19.917 41.8455 20.1365 41.4287 20.5272C41.012 20.9179 40.7778 21.4478 40.7778 22.0003H45.2223ZM23.0001 5.33365C23.5894 5.33365 24.1547 5.11416 24.5714 4.72346C24.9882 4.33276 25.2223 3.80286 25.2223 3.25032C25.2223 2.69779 24.9882 2.16789 24.5714 1.77719C24.1547 1.38649 23.5894 1.16699 23.0001 1.16699V5.33365ZM39.6667 38.6669H6.33339V42.8336H39.6667V38.6669ZM5.22228 37.6253V6.37532H0.777832V37.6253H5.22228ZM40.7778 22.0003V37.6253H45.2223V22.0003H40.7778ZM6.33339 5.33365H23.0001V1.16699H6.33339V5.33365ZM6.33339 38.6669C6.0387 38.6669 5.75609 38.5572 5.54771 38.3618C5.33934 38.1665 5.22228 37.9015 5.22228 37.6253H0.777832C0.777832 39.0066 1.36315 40.3314 2.40502 41.3081C3.44689 42.2849 4.85996 42.8336 6.33339 42.8336V38.6669ZM39.6667 42.8336C41.1401 42.8336 42.5532 42.2849 43.5951 41.3081C44.637 40.3314 45.2223 39.0066 45.2223 37.6253H40.7778C40.7778 37.9015 40.6608 38.1665 40.4524 38.3618C40.244 38.5572 39.9614 38.6669 39.6667 38.6669V42.8336ZM5.22228 6.37532C5.22228 6.09905 5.33934 5.8341 5.54771 5.63875C5.75609 5.4434 6.0387 5.33365 6.33339 5.33365V1.16699C4.85996 1.16699 3.44689 1.71572 2.40502 2.69248C1.36315 3.66923 0.777832 4.99398 0.777832 6.37532H5.22228Z" fill="black"/>
<path d="M45.2223 22.0003C45.2223 21.4478 44.9882 20.9179 44.5714 20.5272C44.1547 20.1365 43.5894 19.917 43.0001 19.917C42.4107 19.917 41.8455 20.1365 41.4287 20.5272C41.012 20.9179 40.7778 21.4478 40.7778 22.0003M45.2223 22.0003H40.7778M45.2223 22.0003V37.6253M40.7778 22.0003V37.6253M23.0001 5.33365C23.5894 5.33365 24.1547 5.11416 24.5714 4.72346C24.9882 4.33276 25.2223 3.80286 25.2223 3.25032C25.2223 2.69779 24.9882 2.16789 24.5714 1.77719C24.1547 1.38649 23.5894 1.16699 23.0001 1.16699M23.0001 5.33365V1.16699M23.0001 5.33365H6.33339M23.0001 1.16699H6.33339M39.6667 38.6669H6.33339M39.6667 38.6669V42.8336M39.6667 38.6669C39.9614 38.6669 40.244 38.5572 40.4524 38.3618C40.6608 38.1665 40.7778 37.9015 40.7778 37.6253M6.33339 38.6669V42.8336M6.33339 38.6669C6.0387 38.6669 5.75609 38.5572 5.54771 38.3618C5.33934 38.1665 5.22228 37.9015 5.22228 37.6253M6.33339 42.8336H39.6667M6.33339 42.8336C4.85996 42.8336 3.44689 42.2849 2.40502 41.3081C1.36315 40.3314 0.777832 39.0066 0.777832 37.6253M39.6667 42.8336C41.1401 42.8336 42.5532 42.2849 43.5951 41.3081C44.637 40.3314 45.2223 39.0066 45.2223 37.6253M5.22228 37.6253V6.37532M5.22228 37.6253H0.777832M5.22228 6.37532H0.777832M5.22228 6.37532C5.22228 6.09905 5.33934 5.8341 5.54771 5.63875C5.75609 5.4434 6.0387 5.33365 6.33339 5.33365M0.777832 6.37532V37.6253M0.777832 6.37532C0.777832 4.99398 1.36315 3.66923 2.40502 2.69248C3.44689 1.71572 4.85996 1.16699 6.33339 1.16699M40.7778 37.6253H45.2223M6.33339 5.33365V1.16699" stroke="black" stroke-width="0.75"/>
<path d="M3 33.4583L14.8811 23.2479C15.2816 22.9038 15.8026 22.7091 16.3457 22.7007C16.8889 22.6923 17.4165 22.8706 17.8289 23.2021L31.8889 34.5M27.4444 29.2916L32.7478 24.3198C33.126 23.9649 33.6282 23.7499 34.162 23.7143C34.6958 23.6787 35.2253 23.8249 35.6533 24.126L43 29.2916M29.6667 9.49999H43M36.3333 3.25V15.75" stroke="black" stroke-width="6" stroke-linecap="round" stroke-linejoin="round"/>
</svg>
