<svg width="24" height="25" viewBox="0 0 24 25" fill="none" xmlns="http://www.w3.org/2000/svg">
<g clip-path="url(#clip0_1184_16756)">
<path d="M20.0002 2.6665H9.3335V5.99984H10.6668V3.99984H20.0002C20.4002 3.99984 20.6668 4.2665 20.6668 4.6665V11.9998C20.6668 12.3998 20.4002 12.6665 20.0002 12.6665H11.3335V17.3332H7.80016L5.3335 19.2665V17.3332H3.3335C2.9335 17.3332 2.66683 17.0665 2.66683 16.6665V9.33317C2.66683 8.93317 2.9335 8.6665 3.3335 8.6665H12.0002V7.33317H3.3335C2.20016 7.33317 1.3335 8.19984 1.3335 9.33317V16.6665C1.3335 17.7998 2.20016 18.6665 3.3335 18.6665H4.00016V22.0665L8.20016 18.6665H12.6668V13.9998H20.0002C21.1335 13.9998 22.0002 13.1332 22.0002 11.9998V4.6665C22.0002 3.53317 21.1335 2.6665 20.0002 2.6665Z" fill="black"/>
<path d="M4.1333 15.9333H5.7333L6.1333 14.8667H8.19997L8.59997 15.9333H10.2L7.9333 10H6.3333L4.1333 15.9333ZM7.1333 11.6667L7.79997 13.7333H6.46663L7.1333 11.6667Z" fill="black"/>
<path d="M13.3335 11.9998C14.0668 11.9998 15.0668 11.7998 16.0002 11.3332C16.9335 11.7998 18.0002 11.9998 18.6668 11.9998V10.6665C18.6668 10.6665 18.0002 10.6665 17.2668 10.3998C18.0668 9.59984 18.6668 8.39984 18.6668 6.6665V5.99984H16.6668V4.6665H15.3335V5.99984H13.3335V7.33317H17.2668C17.1335 8.53317 16.6002 9.2665 16.0002 9.73317C15.6002 9.39984 15.2002 8.93317 14.9335 8.33317H13.5335C13.8002 9.19984 14.2002 9.8665 14.7335 10.3998C14.0668 10.6665 13.4668 10.6665 13.3335 10.6665V11.9998Z" fill="black"/>
</g>
<defs>
<clipPath id="clip0_1184_16756">
<rect width="24" height="24" fill="white" transform="translate(0 0.666504)"/>
</clipPath>
</defs>
</svg>
