<svg width="28" height="31" viewBox="0 0 28 31" fill="none" xmlns="http://www.w3.org/2000/svg">
<path d="M2.54688 14.2433L16.2797 2.26855L19.8622 7.31057M2.54688 14.2433H25.236L22.2505 6.05007L19.8622 7.31057M2.54688 14.2433L19.8622 7.31057" stroke="black" stroke-width="1.89076"/>
<path d="M26.4962 14.873H1.28613V29.3688H26.4962V14.873Z" stroke="black" stroke-width="1.89076"/>
<path d="M17.6731 21.8063C17.6731 24.2428 15.6979 26.2181 13.2614 26.2181C10.8248 26.2181 8.84961 24.2428 8.84961 21.8063C8.84961 19.3697 10.8248 17.3945 13.2614 17.3945C15.6979 17.3945 17.6731 19.3697 17.6731 21.8063ZM10.798 21.8063C10.798 23.1668 11.9009 24.2697 13.2614 24.2697C14.6219 24.2697 15.7248 23.1668 15.7248 21.8063C15.7248 20.4458 14.6219 19.3429 13.2614 19.3429C11.9009 19.3429 10.798 20.4458 10.798 21.8063Z" fill="black"/>
<circle cx="24.6056" cy="16.7638" r="1.89076" fill="black"/>
<circle cx="24.6056" cy="16.7638" r="1.89076" fill="black"/>
<circle cx="24.6056" cy="28.1095" r="1.89076" fill="black"/>
<circle cx="24.6056" cy="28.1095" r="1.89076" fill="black"/>
<circle cx="3.17689" cy="28.1095" r="1.89076" fill="black"/>
<circle cx="3.17689" cy="28.1095" r="1.89076" fill="black"/>
<circle cx="3.17689" cy="16.7638" r="1.89076" fill="black"/>
<circle cx="3.17689" cy="16.7638" r="1.89076" fill="black"/>
</svg>
