<svg width="19" height="18" viewBox="0 0 19 18" fill="none" xmlns="http://www.w3.org/2000/svg">
<path d="M16.3888 11.3612C17.4876 10.1098 18.0686 9 18.0686 9C18.0686 9 15.0144 3.16667 9.66956 3.16667C9.38297 3.16667 9.10296 3.18344 8.82966 3.21518C8.54223 3.24857 8.26221 3.29852 7.98975 3.36293M9.66956 6.5C9.96406 6.5 10.2468 6.55013 10.5095 6.64225C11.2254 6.89333 11.7928 7.45632 12.0459 8.16667C12.1388 8.42732 12.1893 8.7078 12.1893 9M2.11041 1.5L17.2287 16.5M9.66956 11.5C9.37506 11.5 9.09235 11.4499 8.82965 11.3577C8.1137 11.1067 7.54627 10.5437 7.29322 9.83333C7.24548 9.69932 7.20893 9.56006 7.18468 9.41667M3.0738 6.5C2.8149 6.78709 2.58273 7.06868 2.37804 7.33333C1.65087 8.27353 1.27051 9 1.27051 9C1.27051 9 4.32471 14.8333 9.66956 14.8333C9.95615 14.8333 10.2362 14.8166 10.5095 14.7848" stroke="#707070" stroke-width="1.5" stroke-linecap="round" stroke-linejoin="round"/>
</svg>
