<svg width="32" height="26" viewBox="0 0 32 26" fill="none" xmlns="http://www.w3.org/2000/svg">
<path d="M10.351 13.233C10.351 13.911 9.812 14.427 9.129 14.427C8.618 14.427 8.24 14.138 8.24 13.594C8.24 12.916 8.768 12.372 9.446 12.372C9.963 12.372 10.351 12.689 10.351 13.233ZM4.473 10.539H4.212C4.129 10.539 4.045 10.595 4.034 10.689L3.795 12.173L4.251 12.156C4.862 12.156 5.334 12.073 5.445 11.367C5.573 10.622 5.101 10.539 4.473 10.539ZM20.251 10.539H20.001C19.901 10.539 19.834 10.595 19.823 10.689L19.59 12.173L20.034 12.156C20.756 12.156 21.256 11.989 21.256 11.156C21.25 10.567 20.724 10.539 20.251 10.539ZM32.001 3.33302V22.889C32.0002 23.5961 31.719 24.274 31.219 24.774C30.719 25.274 30.0411 25.5552 29.334 25.556H2.667C1.95991 25.5552 1.28201 25.274 0.782023 24.774C0.282036 24.274 0.000794036 23.5961 0 22.889V3.33302C0.000794036 2.62593 0.282036 1.94803 0.782023 1.44804C1.28201 0.948051 1.95991 0.66681 2.667 0.666016H29.334C30.0411 0.66681 30.719 0.948051 31.219 1.44804C31.719 1.94803 32.0002 2.62593 32.001 3.33302ZM7.129 10.855C7.129 9.68802 6.229 9.29902 5.201 9.29902H2.979C2.90722 9.29957 2.83814 9.32645 2.78487 9.37456C2.7316 9.42267 2.69784 9.48866 2.69 9.56002L1.779 15.232C1.762 15.343 1.846 15.454 1.957 15.454H3.013C3.163 15.454 3.302 15.293 3.319 15.137L3.569 13.659C3.625 13.259 4.302 13.398 4.569 13.398C6.158 13.398 7.13 12.454 7.13 10.854L7.129 10.855ZM11.807 11.344H10.751C10.54 11.344 10.529 11.65 10.518 11.8C10.196 11.328 9.729 11.244 9.201 11.244C7.84 11.244 6.801 12.438 6.801 13.755C6.801 14.838 7.479 15.544 8.562 15.544C9.062 15.544 9.684 15.272 10.034 14.883C10.002 14.9954 9.98316 15.1112 9.978 15.228C9.978 15.356 10.034 15.45 10.156 15.45H11.112C11.262 15.45 11.39 15.289 11.418 15.133L11.985 11.561C12.002 11.455 11.918 11.344 11.807 11.344ZM14.057 16.783L17.596 11.638C17.624 11.61 17.624 11.582 17.624 11.544C17.624 11.45 17.541 11.35 17.446 11.35H16.379C16.3294 11.3522 16.281 11.3659 16.2376 11.39C16.1942 11.4142 16.157 11.448 16.129 11.489L14.657 13.656L14.046 11.573C14.0227 11.5099 13.9812 11.4551 13.9267 11.4156C13.8722 11.376 13.8073 11.3536 13.74 11.351H12.701C12.606 11.351 12.523 11.451 12.523 11.545C12.523 11.612 13.606 14.701 13.701 14.995C13.551 15.206 12.562 16.584 12.562 16.751C12.562 16.851 12.645 16.929 12.74 16.929H13.807C13.8569 16.9255 13.9053 16.9107 13.9486 16.8858C13.9919 16.8608 14.029 16.8264 14.057 16.785V16.783ZM22.907 10.855C22.907 9.68802 22.007 9.29902 20.979 9.29902H18.773C18.6993 9.29904 18.628 9.32533 18.5719 9.37316C18.5159 9.42099 18.4786 9.48724 18.467 9.56002L17.567 15.227C17.556 15.338 17.639 15.449 17.745 15.449H18.884C18.995 15.449 19.078 15.366 19.106 15.271L19.356 13.66C19.412 13.26 20.09 13.399 20.356 13.399C21.934 13.399 22.907 12.455 22.907 10.855ZM27.584 11.344H26.528C26.317 11.344 26.306 11.65 26.289 11.8C25.983 11.328 25.511 11.244 24.972 11.244C23.611 11.244 22.572 12.438 22.572 13.755C22.572 14.838 23.25 15.544 24.333 15.544C24.85 15.544 25.472 15.272 25.805 14.883C25.788 14.966 25.749 15.144 25.749 15.228C25.749 15.356 25.805 15.45 25.927 15.45H26.888C27.038 15.45 27.166 15.289 27.194 15.133L27.761 11.561C27.778 11.455 27.695 11.344 27.584 11.344ZM30.223 9.49402C30.223 9.38302 30.14 9.30002 30.045 9.30002H29.017C28.934 9.30002 28.85 9.36701 28.839 9.45002L27.939 15.228L27.923 15.256C27.923 15.356 28.006 15.45 28.117 15.45H29.034C29.173 15.45 29.312 15.289 29.323 15.133L30.223 9.51101V9.49402ZM25.223 12.372C24.545 12.372 24.017 12.911 24.017 13.594C24.017 14.133 24.406 14.427 24.917 14.427C25.584 14.427 26.123 13.916 26.123 13.233C26.129 12.689 25.74 12.372 25.223 12.372Z" fill="white"/>
</svg>
