<svg width="44" height="50" viewBox="0 0 44 50" fill="none" xmlns="http://www.w3.org/2000/svg">
<path d="M5.33325 21.6667V20H3.66659V21.6667H5.33325ZM18.6666 21.6667V20H16.9999V21.6667H18.6666ZM18.6666 35H16.9999V36.6667H18.6666V35ZM41.9999 11.6667H43.6666V10.9767L43.1799 10.4867L41.9999 11.6667ZM31.9999 1.66667L33.1799 0.486667L32.6899 0H31.9999V1.66667ZM5.33325 23.3333H8.66658V20H5.33325V23.3333ZM6.99992 36.6667V28.3333H3.66659V36.6667H6.99992ZM6.99992 28.3333V21.6667H3.66659V28.3333H6.99992ZM8.66658 26.6667H5.33325V30H8.66658V26.6667ZM10.3333 25C10.3333 25.442 10.1577 25.8659 9.8451 26.1785C9.53254 26.4911 9.10861 26.6667 8.66658 26.6667V30C9.99267 30 11.2644 29.4732 12.2021 28.5355C13.1398 27.5979 13.6666 26.3261 13.6666 25H10.3333ZM8.66658 23.3333C9.10861 23.3333 9.53254 23.5089 9.8451 23.8215C10.1577 24.134 10.3333 24.558 10.3333 25H13.6666C13.6666 23.6739 13.1398 22.4021 12.2021 21.4645C11.2644 20.5268 9.99267 20 8.66658 20V23.3333ZM16.9999 21.6667V35H20.3333V21.6667H16.9999ZM18.6666 36.6667H21.9999V33.3333H18.6666V36.6667ZM26.9999 31.6667V25H23.6666V31.6667H26.9999ZM21.9999 20H18.6666V23.3333H21.9999V20ZM26.9999 25C26.9999 23.6739 26.4731 22.4021 25.5355 21.4645C24.5978 20.5268 23.326 20 21.9999 20V23.3333C22.4419 23.3333 22.8659 23.5089 23.1784 23.8215C23.491 24.134 23.6666 24.558 23.6666 25H26.9999ZM21.9999 36.6667C23.326 36.6667 24.5978 36.1399 25.5355 35.2022C26.4731 34.2645 26.9999 32.9927 26.9999 31.6667H23.6666C23.6666 32.1087 23.491 32.5326 23.1784 32.8452C22.8659 33.1577 22.4419 33.3333 21.9999 33.3333V36.6667ZM30.3333 20V36.6667H33.6666V20H30.3333ZM31.9999 23.3333H40.3333V20H31.9999V23.3333ZM31.9999 30H36.9999V26.6667H31.9999V30ZM3.66659 16.6667V5H0.333252V16.6667H3.66659ZM40.3333 11.6667V16.6667H43.6666V11.6667H40.3333ZM5.33325 3.33333H31.9999V0H5.33325V3.33333ZM30.8199 2.84667L40.8199 12.8467L43.1799 10.4867L33.1799 0.486667L30.8199 2.84667ZM3.66659 5C3.66659 4.55797 3.84218 4.13405 4.15474 3.82149C4.4673 3.50893 4.89122 3.33333 5.33325 3.33333V0C4.00717 0 2.7354 0.526784 1.79772 1.46447C0.860036 2.40215 0.333252 3.67392 0.333252 5H3.66659ZM0.333252 40V45H3.66659V40H0.333252ZM5.33325 50H38.6666V46.6667H5.33325V50ZM43.6666 45V40H40.3333V45H43.6666ZM38.6666 50C39.9927 50 41.2644 49.4732 42.2021 48.5355C43.1398 47.5979 43.6666 46.3261 43.6666 45H40.3333C40.3333 45.442 40.1577 45.866 39.8451 46.1785C39.5325 46.4911 39.1086 46.6667 38.6666 46.6667V50ZM0.333252 45C0.333252 46.3261 0.860036 47.5979 1.79772 48.5355C2.7354 49.4732 4.00717 50 5.33325 50V46.6667C4.89122 46.6667 4.4673 46.4911 4.15474 46.1785C3.84218 45.866 3.66659 45.442 3.66659 45H0.333252Z" fill="#999999"/>
</svg>
