<svg width="17" height="18" viewBox="0 0 17 18" fill="none" xmlns="http://www.w3.org/2000/svg">
<path d="M3.86105 1.17162L5.75108 0.793613L5.27259 1.75059L5.24805 1.79967L5.23474 1.85291L4.81369 3.53675L4.79875 3.59648V3.65805V4.50015V4.56169L4.81367 4.62139L5.23473 6.30597L5.24804 6.35923L5.27259 6.40834L5.67776 7.21865L5.86818 7.78977L4.9392 7.78995L3.44911 7.41743L2.77751 6.74582L2.00928 4.82525V3.35537L2.34126 2.69141L3.12599 1.90668L3.86105 1.17162Z" fill="black" stroke="black"/>
<circle cx="10.772" cy="4.50057" r="4.21053" fill="black"/>
<path d="M4.87744 15.3955C4.87744 12.6341 7.11602 10.3955 9.87744 10.3955H11.6669C14.4283 10.3955 16.6669 12.6341 16.6669 15.3955V16.1324C16.6669 16.6846 16.2192 17.1323 15.6669 17.1323H5.87744C5.32516 17.1323 4.87744 16.6846 4.87744 16.1323V15.3955Z" fill="black"/>
<path d="M3.73191 10.8955H4.71914L4.05598 11.7797L3.9954 11.8605L3.97091 11.9585L3.54985 13.6427L3.53492 13.7024V13.7639V16.6323H1.92966H1.1665V16.2902V15.4481V14.606V13.7639V13.0399L1.49848 12.3759L2.22584 11.6485L2.99537 11.2638L3.73191 10.8955Z" fill="black" stroke="black"/>
</svg>
