<svg width="70" height="70" viewBox="0 0 70 70" fill="none" xmlns="http://www.w3.org/2000/svg">
<path d="M1.77897 61.3712C2.43278 65.3214 5.86465 68.3337 10.0001 68.3337H60.0001C64.6025 68.3337 68.3334 64.6027 68.3334 60.0003V44.1258M1.77897 61.3712C1.70515 60.9252 1.66675 60.4673 1.66675 60.0003V10.0003C1.66675 5.39795 5.39771 1.66699 10.0001 1.66699H60.0001C64.6025 1.66699 68.3334 5.39795 68.3334 10.0003V44.1258M1.77897 61.3712L17.6985 45.4517C20.532 42.9725 24.6759 42.701 27.8086 44.7895L29.9299 46.2037C32.9494 48.2167 36.9245 48.0442 39.7582 45.7772L50.7922 36.95C53.6046 34.7001 57.522 34.5235 60.5118 36.4521C60.8432 36.6658 61.1379 36.9305 61.4168 37.2094L68.3334 44.1258M30.8334 22.5003C30.8334 27.1027 27.1025 30.8337 22.5001 30.8337C17.8977 30.8337 14.1667 27.1027 14.1667 22.5003C14.1667 17.898 17.8977 14.167 22.5001 14.167C27.1025 14.167 30.8334 17.898 30.8334 22.5003Z" stroke="#707070" stroke-width="1.5" stroke-linecap="round" stroke-linejoin="round"/>
</svg>
