<svg width="16" height="16" viewBox="0 0 16 16" fill="none" xmlns="http://www.w3.org/2000/svg">
<path d="M6.71594 1.60185C7.01529 0.680544 8.3187 0.680544 8.61805 1.60186L9.68762 4.89365C9.82149 5.30567 10.2054 5.58463 10.6387 5.58463H14.0999C15.0686 5.58463 15.4714 6.82425 14.6877 7.39365L11.8875 9.42809C11.537 9.68274 11.3903 10.1341 11.5242 10.5461L12.5938 13.8379C12.8931 14.7592 11.8387 15.5254 11.0549 14.956L8.25478 12.9215C7.90429 12.6669 7.42969 12.6669 7.07921 12.9215L4.27904 14.956C3.49532 15.5254 2.44084 14.7592 2.7402 13.8379L3.80977 10.5461C3.94364 10.1341 3.79698 9.68274 3.44649 9.42809L0.646325 7.39365C-0.137389 6.82425 0.265387 5.58463 1.23411 5.58463H4.69531C5.12854 5.58463 5.51249 5.30567 5.64637 4.89365L6.71594 1.60185Z" fill="#FFEA00"/>
</svg>
