<svg width="42" height="42" viewBox="0 0 42 42" fill="none" xmlns="http://www.w3.org/2000/svg">
<path d="M9.02046 0.865723C6.96733 1.13818 5.1023 3.54639 5.1023 6.6665C5.1023 8.38037 5.69819 9.90088 6.56919 10.9556L7.60542 12.2036L6.00581 12.5024C4.87554 12.7222 4.04497 13.3198 3.33481 14.2954C2.62378 15.271 2.08062 16.6245 1.70005 18.1978C1.01099 21.0278 0.858057 24.4907 0.835205 27.5493H4.6022L5.63667 41.4185C8.2646 42.0161 11.0683 41.9897 13.5996 41.4185L14.5136 27.5493H18.0996C18.0996 24.4556 18.0556 20.9487 17.4316 18.0835C17.0888 16.5103 16.5703 15.1567 15.8496 14.1899C15.1289 13.2231 14.2587 12.6343 12.9843 12.4321L11.3496 12.1772L12.3867 10.8853C13.2216 9.83936 13.7841 8.33643 13.7841 6.6665C13.7841 3.33545 11.7011 0.874512 9.44233 0.874512L9.02046 0.865723ZM21.4746 3.55693V5.13896H41.1621V3.55693H21.4746ZM22.8808 6.98467C22.8808 11.2017 27.0996 21.0454 31.3183 21.0454C35.5371 21.0454 39.7558 11.2017 39.7558 6.98467H22.8808ZM31.3183 22.8032C27.0996 22.8032 22.8808 32.647 22.8808 36.8657H39.7558C39.7558 32.647 35.5371 22.8032 31.3183 22.8032ZM21.4746 38.7114V40.2935H41.1621V38.7114H21.4746Z" fill="#F8F8F8"/>
</svg>
