<svg width="46" height="39" viewBox="0 0 46 39" fill="none" xmlns="http://www.w3.org/2000/svg">
<path d="M11.0209 0.333008C9.22519 0.333008 7.503 1.04636 6.23322 2.31614C4.96344 3.58592 4.25009 5.3081 4.25009 7.10384V21.8601C5.2475 21.464 6.30324 21.2345 7.37509 21.1809V7.10384C7.37509 5.09134 9.00842 3.45801 11.0209 3.45801H26.6459C28.6584 3.45801 30.2918 5.09134 30.2918 7.10384V22.7288C30.2918 23.6958 29.9076 24.6231 29.2239 25.3068C28.5402 25.9906 27.6129 26.3747 26.6459 26.3747H23.9043C24.4209 27.333 24.7834 28.3851 24.9605 29.4997H26.6459C28.4417 29.4997 30.1639 28.7863 31.4336 27.5165C32.7034 26.2468 33.4168 24.5246 33.4168 22.7288V22.0788L40.2043 26.7663C42.6209 28.433 45.9209 26.7038 45.9209 23.7663V6.06426C45.9209 3.12676 42.6209 1.39342 40.2043 3.06426L33.4168 7.75384V7.10384C33.4168 5.3081 32.7034 3.58592 31.4336 2.31614C30.1639 1.04636 28.4417 0.333008 26.6459 0.333008H11.0209ZM33.4168 11.5497L41.9793 5.63717C42.0575 5.5832 42.1489 5.55165 42.2438 5.54594C42.3387 5.54023 42.4333 5.56058 42.5174 5.60479C42.6015 5.64899 42.6719 5.71537 42.721 5.79672C42.7701 5.87808 42.796 5.97132 42.7959 6.06634V23.7643C42.796 23.8593 42.7701 23.9525 42.721 24.0339C42.6719 24.1152 42.6015 24.1816 42.5174 24.2258C42.4333 24.27 42.3387 24.2904 42.2438 24.2847C42.1489 24.2789 42.0575 24.2474 41.9793 24.1934L33.4168 18.2809V11.5497ZM23.0001 31.0622C23.0001 28.9902 22.177 27.003 20.7119 25.5379C19.2467 24.0728 17.2596 23.2497 15.1876 23.2497L14.9751 23.2643C14.5829 23.3182 14.2258 23.519 13.976 23.8261C13.7262 24.1332 13.6022 24.5237 13.6292 24.9187C13.6562 25.3136 13.8321 25.6836 14.1214 25.9539C14.4106 26.2242 14.7917 26.3746 15.1876 26.3747L15.5084 26.3851C16.7226 26.4661 17.8577 27.0162 18.6737 27.919C19.4897 28.8218 19.9226 30.0065 19.881 31.2227C19.8393 32.4389 19.3263 33.5912 18.4504 34.436C17.5746 35.2808 16.4045 35.7519 15.1876 35.7497L15.1813 35.7601L14.9688 35.7747C14.5755 35.8287 14.2175 36.0304 13.9675 36.3389C13.7176 36.6473 13.5944 37.0394 13.623 37.4354C13.6517 37.8314 13.83 38.2016 14.1218 38.4709C14.4135 38.7401 14.7968 38.8882 15.1938 38.8851V38.8747L15.6105 38.8643C17.6065 38.756 19.4852 37.8868 20.8598 36.4355C22.2344 34.9842 23.0004 33.0611 23.0001 31.0622ZM9.45842 24.8122C9.45842 24.3978 9.2938 24.0003 9.00078 23.7073C8.70775 23.4143 8.31032 23.2497 7.89592 23.2497L7.47926 23.2601C5.4437 23.3653 3.52985 24.2618 2.14608 25.7584C0.762322 27.2549 0.0182366 29.233 0.0726073 31.2706C0.126978 33.3081 0.975499 35.2437 2.43711 36.6644C3.89871 38.085 5.85766 38.8782 7.89592 38.8747L8.10842 38.8601C8.50061 38.8061 8.85769 38.6053 9.10752 38.2982C9.35735 37.9911 9.48129 37.6006 9.45431 37.2057C9.42733 36.8107 9.25143 36.4407 8.96216 36.1704C8.67288 35.9002 8.2918 35.7498 7.89592 35.7497L7.57509 35.7393C6.36089 35.6582 5.22579 35.1081 4.4098 34.2054C3.59381 33.3026 3.16088 32.1179 3.20254 30.9017C3.24421 29.6855 3.75721 28.5332 4.63308 27.6883C5.50894 26.8435 6.67902 26.3724 7.89592 26.3747L8.10842 26.3601C8.48249 26.3087 8.82532 26.1237 9.07349 25.8391C9.32167 25.5546 9.45841 25.1898 9.45842 24.8122ZM16.7501 31.0622C16.7501 30.6478 16.5855 30.2503 16.2924 29.9573C15.9994 29.6643 15.602 29.4997 15.1876 29.4997H7.89592L7.68342 29.5143C7.29123 29.5682 6.93415 29.769 6.68432 30.0761C6.4345 30.3832 6.31055 30.7737 6.33753 31.1687C6.36452 31.5636 6.54042 31.9336 6.82969 32.2039C7.11896 32.4742 7.50004 32.6246 7.89592 32.6247H15.1876L15.4001 32.6101C15.7742 32.5587 16.117 32.3737 16.3652 32.0891C16.6133 31.8046 16.7501 31.4398 16.7501 31.0622Z" fill="#999999"/>
</svg>
