<svg width="25" height="25" viewBox="0 0 25 25" fill="none" xmlns="http://www.w3.org/2000/svg">
<path d="M12.5 0.666016C9.3174 0.666016 6.26515 1.9303 4.01472 4.18073C1.76428 6.43117 0.5 9.48342 0.5 12.666C0.5 15.8486 1.76428 18.9009 4.01472 21.1513C6.26515 23.4017 9.3174 24.666 12.5 24.666C15.6826 24.666 18.7348 23.4017 20.9853 21.1513C23.2357 18.9009 24.5 15.8486 24.5 12.666C24.5 9.48342 23.2357 6.43117 20.9853 4.18073C18.7348 1.9303 15.6826 0.666016 12.5 0.666016ZM16.75 1.78602C17.07 1.78602 17.4 1.81602 17.61 1.88602C15.44 2.33602 13.71 4.35602 13.72 6.66602C13.72 6.71602 13.72 6.77602 13.73 6.83602C17.37 7.72602 19 9.91602 19 12.946C19.04 15.976 16.64 19.306 12.59 19.316C9.32 19.326 5.91 16.526 5.89 12.036C5.88 9.06602 7.5 6.20602 9.54 4.51602C11.54 2.85602 14.27 1.79602 16.75 1.78602Z" fill="white"/>
</svg>
