<svg width="31" height="31" viewBox="0 0 31 31" fill="none" xmlns="http://www.w3.org/2000/svg">
<path d="M24.899 8.51562H5.99141C4.42505 8.51562 3.15527 9.78541 3.15527 11.3518V22.6963C3.15527 24.2626 4.42505 25.5324 5.99141 25.5324H24.899C26.4653 25.5324 27.7351 24.2626 27.7351 22.6963V11.3518C27.7351 9.78541 26.4653 8.51562 24.899 8.51562Z" stroke="black" stroke-width="1.89076" stroke-linejoin="round"/>
<path d="M24.6248 8.51696V6.74437C24.6247 6.30962 24.5286 5.88026 24.3434 5.48692C24.1582 5.09358 23.8885 4.74596 23.5535 4.46886C23.2185 4.19176 22.8265 3.99202 22.4054 3.88387C21.9843 3.77573 21.5445 3.76186 21.1175 3.84324L5.55653 6.49916C4.88078 6.62794 4.27115 6.9885 3.83278 7.51866C3.39442 8.04882 3.15481 8.71533 3.15527 9.40325V12.2985" stroke="black" stroke-width="1.89076" stroke-linejoin="round"/>
<path d="M22.0626 18.9153C21.6887 18.9153 21.3231 18.8044 21.0122 18.5967C20.7013 18.3889 20.4589 18.0936 20.3158 17.7481C20.1727 17.4026 20.1353 17.0224 20.2082 16.6557C20.2812 16.2889 20.4612 15.952 20.7257 15.6876C20.9901 15.4232 21.327 15.2431 21.6938 15.1701C22.0605 15.0972 22.4407 15.1346 22.7862 15.2777C23.1317 15.4208 23.427 15.6632 23.6347 15.9741C23.8425 16.285 23.9534 16.6506 23.9534 17.0245C23.9534 17.526 23.7542 18.0069 23.3996 18.3615C23.045 18.7161 22.5641 18.9153 22.0626 18.9153Z" fill="black"/>
</svg>
