<svg width="24" height="25" viewBox="0 0 24 25" fill="none" xmlns="http://www.w3.org/2000/svg">
<path d="M20.9994 19.911V17.2013C21.0104 16.7583 20.8579 16.3267 20.5709 15.9887C19.7615 15.0353 16.9855 14.4254 15.8851 14.6596C15.0273 14.8422 14.4272 15.7034 13.8405 16.289C11.5746 15.0032 9.69858 13.1308 8.41019 10.8695C8.9969 10.2839 9.85987 9.68497 10.0428 8.82889C10.2771 7.73238 9.66813 4.9741 8.72131 4.16145C8.38828 3.87561 7.96247 3.72038 7.52325 3.7247H4.80811C3.77358 3.72567 2.91287 4.65356 3.00706 5.69379C3 14.6596 10 21.7246 19.0264 21.7176C20.0722 21.8119 21.0036 20.9469 20.9994 19.911Z" stroke="white" stroke-width="1.5" stroke-linecap="round" stroke-linejoin="round"/>
</svg>
