<svg width="19" height="20" viewBox="0 0 19 20" fill="none" xmlns="http://www.w3.org/2000/svg">
<path d="M8.6669 3.39062H3.35905C2.73339 3.39063 2.13336 3.63917 1.69095 4.08157C1.24854 4.52398 1 5.12401 1 5.74967V16.3654C1 16.991 1.24854 17.5911 1.69095 18.0335C2.13336 18.4759 2.73339 18.7244 3.35905 18.7244H15.1543C15.7799 18.7244 16.38 18.4759 16.8224 18.0335C17.2648 17.5911 17.5133 16.991 17.5133 16.3654V11.0575" stroke="white" stroke-width="1.5" stroke-linecap="round" stroke-linejoin="round"/>
<path d="M15.1549 4.5702L16.279 5.74973M17.514 2.17223C17.829 2.49708 18.0035 2.93287 17.9997 3.38536C17.996 3.83784 17.8143 4.27067 17.4939 4.59026L9.25732 12.8269L5.71875 14.0064L6.89827 10.4678L15.1396 2.1569C15.4295 1.86518 15.8171 1.6912 16.2277 1.66854C16.6384 1.64589 17.0428 1.77617 17.363 2.03423L17.514 2.17223Z" stroke="white" stroke-width="1.5" stroke-linecap="round" stroke-linejoin="round"/>
</svg>
