<svg width="24" height="25" viewBox="0 0 24 25" fill="none" xmlns="http://www.w3.org/2000/svg">
<path d="M11 3.72461H13C13.5523 3.72461 14 4.17232 14 4.72461V5.2934C14 5.7212 14.2871 6.09286 14.6822 6.25689C15.0775 6.42099 15.5377 6.35845 15.8403 6.05584L16.2426 5.65352C16.6331 5.26299 17.2663 5.26299 17.6568 5.65352L19.071 7.06773C19.4616 7.45826 19.4615 8.09142 19.071 8.48195L18.6688 8.88421C18.3661 9.18684 18.3036 9.64708 18.4677 10.0424C18.6317 10.4375 19.0034 10.7246 19.4313 10.7246L20 10.7246C20.5523 10.7246 21 11.1723 21 11.7246V13.7246C21 14.2769 20.5523 14.7246 20 14.7246H19.4312C19.0034 14.7246 18.6318 15.0117 18.4677 15.4068C18.3036 15.8021 18.3661 16.2623 18.6688 16.565L19.071 16.9672C19.4616 17.3578 19.4616 17.9909 19.071 18.3814L17.6568 19.7957C17.2663 20.1862 16.6331 20.1862 16.2426 19.7957L15.8403 19.3934C15.5377 19.0908 15.0775 19.0282 14.6822 19.1923C14.2871 19.3564 14 19.728 14 20.1558V20.7246C14 21.2769 13.5523 21.7246 13 21.7246H11C10.4477 21.7246 10 21.2769 10 20.7246V20.1559C10 19.728 9.71287 19.3564 9.31774 19.1923C8.92247 19.0282 8.46223 19.0907 8.1596 19.3934L7.75732 19.7957C7.36679 20.1862 6.73363 20.1862 6.34311 19.7957L4.92889 18.3814C4.53837 17.9909 4.53837 17.3577 4.92889 16.9672L5.33123 16.5649C5.63384 16.2623 5.69638 15.8021 5.53228 15.4068C5.36825 15.0117 4.99659 14.7246 4.56879 14.7246H4C3.44772 14.7246 3 14.2769 3 13.7246V11.7246C3 11.1723 3.44772 10.7246 4 10.7246L4.56877 10.7246C4.99658 10.7246 5.36825 10.4375 5.53229 10.0424C5.6964 9.64711 5.63386 9.18689 5.33123 8.88427L4.92891 8.48195C4.53838 8.09142 4.53838 7.45826 4.92891 7.06773L6.34312 5.65352C6.73365 5.263 7.36681 5.263 7.75734 5.65352L8.15966 6.05584C8.46228 6.35847 8.9225 6.42101 9.31776 6.2569C9.71288 6.09286 10 5.72119 10 5.29337V4.72461C10 4.17232 10.4477 3.72461 11 3.72461Z" stroke="white" stroke-width="1.5"/>
<path d="M14 12.7246C14 13.8292 13.1046 14.7246 12 14.7246C10.8954 14.7246 10 13.8292 10 12.7246C10 11.62 10.8954 10.7246 12 10.7246C13.1046 10.7246 14 11.62 14 12.7246Z" stroke="white" stroke-width="1.5"/>
</svg>
